<svg width="60" height="61" viewBox="0 0 60 61" fill="none" xmlns="http://www.w3.org/2000/svg">
<g clip-path="url(#clip0_17378_1652)">
<path d="M12.8901 15.2663C12.2433 15.2663 11.7183 15.7913 11.7183 16.4382C11.7183 17.085 12.2433 17.61 12.8901 17.61C13.537 17.61 14.062 17.085 14.062 16.4382C14.062 15.7913 13.537 15.2663 12.8901 15.2663Z" fill="white"/>
<path d="M55.1865 25.2886L53.4909 21.8974C52.8914 20.6983 51.6866 19.9536 50.3464 19.9536H40.5452V11.7508C40.5452 9.8124 38.9682 8.23529 37.0297 8.23529H3.51551C1.57699 8.23529 0 9.81228 0 11.7508V42.2183C0 44.1567 1.57699 45.7338 3.51551 45.7338H7.03102C7.03102 47.5331 7.71129 49.1761 8.82703 50.421H1.17187C0.524648 50.421 0 50.9458 0 51.5929C0 52.24 0.524648 52.7648 1.17187 52.7648H58.8258C59.473 52.7648 59.9977 52.24 59.9977 51.5929C59.9977 50.9458 59.473 50.421 58.8258 50.421H55.8579C56.9737 49.176 57.6539 47.5331 57.6539 45.7338C57.6539 45.667 57.6507 45.6005 57.6489 45.5338C59.0154 45.0515 59.9975 43.7478 59.9975 42.2183V35.7404C59.9975 34.3729 60.2684 35.6495 55.1865 25.2886ZM19.2968 50.421C20.4127 49.176 21.0928 47.5331 21.0928 45.7338H43.5919C43.5919 47.5331 44.2721 49.1761 45.3879 50.421H19.2968Z" fill="#E31E24"/>
<path d="M55.1865 25.2886L53.4909 21.8974C52.8914 20.6983 51.6866 19.9536 50.3464 19.9536H40.5452V11.7508C40.5452 9.8124 38.9682 8.23529 37.0297 8.23529H3.51551C1.57699 8.23529 0 9.81228 0 11.7508V42.2183C0 44.1567 1.57699 45.7338 3.51551 45.7338H7.03102C7.03102 47.5331 7.71129 49.1761 8.82703 50.421H1.17188C0.524648 50.421 0 50.9458 0 51.5929C0 52.24 0.524648 52.7648 1.17188 52.7648H58.8258C59.473 52.7648 59.9977 52.24 59.9977 51.5929C59.9977 50.9458 59.473 50.421 58.8258 50.421H55.8579C56.9737 49.176 57.6539 47.5331 57.6539 45.7338C57.6539 45.667 57.6507 45.6005 57.6489 45.5338C59.0154 45.0515 59.9975 43.7478 59.9975 42.2183V35.7404C59.9975 34.3729 60.2684 35.6495 55.1865 25.2886ZM53.4142 26.9845L56.9297 34.0155H45.2325V26.9845H53.4142ZM2.34363 36.3591H4.68727V38.7028H2.34363V36.3591ZM14.0619 50.421C11.4773 50.421 9.37465 48.3182 9.37465 45.7338C9.37465 45.4145 9.40629 45.1004 9.46957 44.7949C9.91031 42.6229 11.8417 41.0464 14.0619 41.0464C16.2821 41.0464 18.2136 42.6228 18.6543 44.7949L18.6553 44.7998C18.7177 45.1003 18.7492 45.4145 18.7492 45.7338C18.7492 48.3183 16.6465 50.421 14.0619 50.421ZM14.0619 38.7028C11.0595 38.7028 8.40973 40.6261 7.43285 43.39H3.51551C2.86934 43.39 2.34363 42.8643 2.34363 42.2181V41.0463H5.85914C6.50637 41.0463 7.03102 40.5215 7.03102 39.8744V35.1871C7.03102 34.54 6.50637 34.0153 5.85914 34.0153H2.34363V11.7508C2.34363 11.1046 2.86934 10.5789 3.51551 10.5789H37.0297C37.6759 10.5789 38.2016 11.1046 38.2016 11.7508V43.3901H20.6904C19.7118 40.6247 17.0631 38.7028 14.0619 38.7028ZM19.2968 50.421C20.4127 49.176 21.0928 47.5331 21.0928 45.7338H43.5919C43.5919 47.5331 44.2721 49.1761 45.3879 50.421H19.2968ZM50.6229 50.421C48.0383 50.421 45.9356 48.3182 45.9356 45.7338C45.9356 45.4145 45.9673 45.1004 46.0305 44.7949C46.4713 42.6229 48.4027 41.0464 50.6229 41.0464C52.8431 41.0464 54.7746 42.6228 55.2152 44.7949L55.2163 44.7998C55.2786 45.1003 55.3102 45.4145 55.3102 45.7338C55.3103 48.3183 53.2075 50.421 50.6229 50.421ZM57.6539 42.2183C57.6539 42.608 57.4618 42.9529 57.1683 43.1662C56.1287 40.5214 53.5424 38.7029 50.6229 38.7029C47.6204 38.7029 44.9707 40.6263 43.9938 43.3901H40.5451V22.2972H50.3463C50.5642 22.2965 50.7778 22.3569 50.9631 22.4715C51.1484 22.586 51.2978 22.7502 51.3946 22.9454L52.2423 24.6408H44.0607C43.4135 24.6408 42.8889 25.1656 42.8889 25.8127V35.1874C42.8889 35.8345 43.4135 36.3592 44.0607 36.3592H57.6539V42.2183Z" fill="white"/>
<path d="M32.3424 15.2663H17.5774C16.9302 15.2663 16.4055 15.7911 16.4055 16.4382C16.4055 17.0853 16.9302 17.61 17.5774 17.61H32.3424C32.9897 17.61 33.5143 17.0853 33.5143 16.4382C33.5143 15.7911 32.9896 15.2663 32.3424 15.2663ZM32.3424 19.9536H22.2647C21.6174 19.9536 21.0928 20.4783 21.0928 21.1254C21.0928 21.7725 21.6174 22.2973 22.2647 22.2973H32.3424C32.9897 22.2973 33.5143 21.7725 33.5143 21.1254C33.5143 20.4783 32.9896 19.9536 32.3424 19.9536ZM50.6229 43.3901C49.3305 43.3901 48.2792 44.4415 48.2792 45.7338C48.2792 47.0261 49.3306 48.0774 50.6229 48.0774C51.9152 48.0774 52.9665 47.026 52.9665 45.7338C52.9665 44.4414 51.9152 43.3901 50.6229 43.3901ZM14.0619 43.3901C12.7696 43.3901 11.7183 44.4415 11.7183 45.7338C11.7183 47.0261 12.7697 48.0774 14.0619 48.0774C15.3542 48.0774 16.4055 47.026 16.4055 45.7338C16.4055 44.4414 15.3542 43.3901 14.0619 43.3901Z" fill="white"/>
</g>
<defs>
<clipPath id="clip0_17378_1652">
<rect width="60" height="60" fill="white" transform="translate(0 0.5)"/>
</clipPath>
</defs>
</svg>
