<svg width="60" height="61" viewBox="0 0 60 61" fill="none" xmlns="http://www.w3.org/2000/svg">
<g clip-path="url(#clip0_17378_1598)">
<path d="M55.9325 35.5003H58.9995C59.5518 35.5003 59.9996 35.9478 59.9996 36.5004V59.5003C59.9996 60.0526 59.5517 60.5 58.9995 60.5H1.00013C0.447844 60.5 0 60.0525 0 59.5002V35.5002C6.06384e-05 35.3277 0.0447431 35.1581 0.129706 35.008C0.214668 34.8579 0.337021 34.7323 0.484875 34.6434L10.485 28.6434C10.6367 28.5523 10.8099 28.503 10.9869 28.5007C11.1639 28.4984 11.3384 28.5431 11.4924 28.6302C11.6465 28.7173 11.7747 28.8438 11.8639 28.9966C11.9532 29.1495 12.0003 29.3233 12.0004 29.5003V35.4194L20.3752 28.7195C20.5525 28.5772 20.7731 28.4998 21.0004 28.5002C21.5527 28.5002 22.0001 28.9484 22.0001 29.5003V35.4194L30.375 28.7195C30.5523 28.5773 30.7728 28.4999 31.0001 28.5002C31.5524 28.5002 31.9999 28.9484 31.9999 29.5003V35.4194L40.3748 28.7195C40.5521 28.5772 40.7728 28.4998 41.0003 28.5002C41.5522 28.5002 42 28.9484 42 29.5002V35.5002H44.0665L45.9994 7.43238C46.0168 7.17916 46.1298 6.94203 46.3155 6.769C46.5012 6.59596 46.7457 6.49995 46.9995 6.50041H52.9995C53.2533 6.49995 53.4978 6.59598 53.6835 6.76903C53.8692 6.94209 53.9822 7.17924 53.9996 7.43247L55.9325 35.5003Z" fill="#E31E24"/>
<path d="M34.965 3.25253C34.6849 2.94965 34.3564 2.69555 33.9928 2.50066C33.4405 2.49878 32.9941 2.04906 32.996 1.49725C32.9978 0.944596 33.4475 0.498533 33.9994 0.500408C34.911 0.619844 35.7432 1.08099 36.3278 1.7906C36.591 2.07041 36.8942 2.3097 37.2276 2.50066C37.584 2.29494 37.9078 2.03738 38.1885 1.73641C38.7433 1.06023 39.5331 0.618729 40.3997 0.500408C41.3396 0.619956 42.1981 1.09447 42.7994 1.82669C43.0488 2.08934 43.3321 2.31757 43.6418 2.50535C43.8531 2.50056 44.4097 1.97763 44.7418 1.6645C45.2547 1.02885 45.9906 0.612541 46.7996 0.500314C47.3353 0.490484 47.8636 0.62648 48.328 0.893751C48.7923 1.16102 49.1753 1.54951 49.4359 2.01766C49.7608 2.48669 49.7995 2.50066 49.9999 2.50066C50.5518 2.50066 50.9996 2.94813 50.9996 3.50078C50.9996 4.05269 50.5518 4.50053 49.9999 4.50053C49.5444 4.49602 49.0987 4.36858 48.7097 4.13168C48.3207 3.89479 48.0028 3.55723 47.7898 3.15466L47.7892 3.15371C47.4594 2.67836 47.3361 2.50066 46.7995 2.50066C46.7307 2.54171 46.3873 2.86388 46.1432 3.09298L46.1118 3.12241C45.4793 3.88353 44.5814 4.3761 43.5997 4.50053C42.7491 4.38773 41.9742 3.95275 41.435 3.28535L41.4301 3.28079C41.1389 3.00879 40.6047 2.50979 40.4001 2.50066C40.0923 2.70011 39.809 2.935 39.5559 3.2005C38.9648 3.91812 38.122 4.38309 37.1997 4.50053C36.3239 4.38174 35.5255 3.93587 34.965 3.25253Z" fill="#E31E24"/>
<path d="M58.9995 35.5003H55.9325L53.9996 7.43247C53.9822 7.17924 53.8692 6.94209 53.6835 6.76903C53.4978 6.59598 53.2533 6.49995 52.9995 6.50041H46.9995C46.7457 6.49995 46.5012 6.59596 46.3155 6.769C46.1298 6.94203 46.0168 7.17916 45.9994 7.43238L44.0665 35.5002H42V29.5002C42 28.9484 41.5522 28.5002 41.0003 28.5002C40.7728 28.4998 40.5521 28.5772 40.3748 28.7195L31.9999 35.4194V29.5003C31.9999 28.9484 31.5524 28.5002 31.0001 28.5002C30.7728 28.4999 30.5523 28.5773 30.375 28.7195L22.0001 35.4194V29.5003C22.0001 28.9484 21.5527 28.5002 21.0004 28.5002C20.7731 28.4998 20.5525 28.5772 20.3752 28.7195L12.0004 35.4194V29.5003C12.0003 29.3233 11.9532 29.1495 11.8639 28.9966C11.7747 28.8438 11.6465 28.7173 11.4924 28.6302C11.3384 28.5431 11.1639 28.4984 10.9869 28.5007C10.8099 28.503 10.6367 28.5523 10.485 28.6434L0.484875 34.6434C0.337021 34.7323 0.214668 34.8579 0.129706 35.008C0.0447431 35.1581 6.06384e-05 35.3277 0 35.5002L0 59.5002C0 60.0525 0.447844 60.5 1.00013 60.5H58.9995C59.5517 60.5 59.9996 60.0526 59.9996 59.5003V36.5004C59.9996 35.9478 59.5518 35.5003 58.9995 35.5003ZM47.9333 8.50028H52.0657L53.9282 35.5003H46.0708L47.9333 8.50028ZM33.9994 58.5002V46.5002H39.9994V58.5002H33.9994ZM57.9998 58.5002H42V52.0001V45.5C42 44.9481 41.5518 44.5003 40.9995 44.5003H32.9996C32.4474 44.5003 31.9995 44.9481 31.9995 45.5V58.5002H1.99988V36.0664L9.99975 31.2664V37.5002C9.99975 38.0527 10.4472 38.5003 10.9995 38.501C11.2266 38.501 11.4473 38.4234 11.625 38.2813L19.9999 31.5814V37.5002C19.9999 38.0527 20.4471 38.5003 20.9996 38.501C21.2267 38.501 21.4472 38.4234 21.6248 38.2817L29.9996 31.5818V37.5005C29.9996 38.0527 30.4468 38.501 30.9994 38.501C31.2264 38.501 31.4469 38.4234 31.6245 38.2817L39.9994 31.5818V36.5004C39.9994 37.053 40.4472 37.5005 40.9995 37.5005H57.999L57.9998 58.5002ZM33.9928 2.50066C34.3564 2.69555 34.6849 2.94965 34.965 3.25253C35.5255 3.93587 36.3239 4.38174 37.1997 4.50053C38.122 4.38309 38.9648 3.91812 39.5559 3.2005C39.809 2.935 40.0923 2.70011 40.4001 2.50066C40.6058 2.50985 41.1449 3.01441 41.435 3.28535C41.9742 3.95275 42.7491 4.38773 43.5997 4.50053C44.5814 4.3761 45.4793 3.88353 46.1118 3.12241C46.3568 2.89253 46.7277 2.5435 46.7995 2.50066C47.3364 2.50066 47.4595 2.6786 47.7898 3.15466C48.0028 3.55723 48.3207 3.89479 48.7097 4.13168C49.0987 4.36858 49.5444 4.49602 49.9999 4.50053C50.5518 4.50053 50.9996 4.05269 50.9996 3.50078C50.9996 2.94813 50.5518 2.50066 49.9999 2.50066C49.7995 2.50066 49.7608 2.48669 49.4359 2.01766C49.1753 1.54951 48.7923 1.16102 48.328 0.893751C47.8636 0.62648 47.3353 0.490484 46.7996 0.500314C45.9906 0.612541 45.2547 1.02885 44.7418 1.6645C44.4097 1.97763 43.8531 2.50056 43.6418 2.50535C43.3321 2.31757 43.0488 2.08934 42.7994 1.82669C42.1981 1.09447 41.3396 0.619956 40.3997 0.500408C39.5331 0.618729 38.7433 1.06023 38.1885 1.73641C37.9078 2.03738 37.584 2.29494 37.2276 2.50066C36.8942 2.3097 36.591 2.07041 36.3278 1.7906C35.7432 1.08099 34.911 0.619844 33.9994 0.500408C33.4475 0.498533 32.9978 0.944596 32.996 1.49725C32.9941 2.04906 33.4405 2.49878 33.9928 2.50066Z" fill="white"/>
<path d="M11.0003 46.5001H6.99975C6.44756 46.5001 6 46.948 6 47.4999V53.4999C6 54.0525 6.44747 54.5 6.99975 54.5H11.0003C11.5522 54.5 12 54.0525 12 53.4999V47.4999C12 46.948 11.5522 46.5001 11.0003 46.5001ZM9.99975 52.5001H7.99988V48.5004H9.99975V52.5001ZM19.0001 46.5001H15C14.4473 46.5001 13.9999 46.948 13.9999 47.4999V53.4999C13.9998 53.6312 14.0257 53.7613 14.0759 53.8827C14.1261 54.004 14.1998 54.1143 14.2927 54.2072C14.3856 54.3001 14.4958 54.3737 14.6172 54.424C14.7386 54.4742 14.8686 54.5 15 54.5H19.0001C19.552 54.5 19.9999 54.0525 19.9999 53.4999V47.4999C19.9999 46.948 19.552 46.5001 19.0001 46.5001ZM17.9996 52.5001H15.9998V48.5004H17.9996V52.5001ZM27 46.5001H22.9999C22.4473 46.5001 21.9998 46.948 21.9998 47.4999V53.4999C21.9997 53.6312 22.0255 53.7613 22.0758 53.8827C22.126 54.004 22.1997 54.1143 22.2926 54.2072C22.3855 54.3001 22.4957 54.3737 22.6171 54.424C22.7385 54.4742 22.8685 54.5 22.9999 54.5H27C27.5519 54.5 27.9998 54.0525 27.9998 53.4999V47.4999C27.9998 46.948 27.5519 46.5001 27 46.5001ZM25.9995 52.5001H23.9996V48.5004H25.9995V52.5001Z" fill="white"/>
</g>
<defs>
<clipPath id="clip0_17378_1598">
<rect width="60" height="60" fill="white" transform="translate(0 0.5)"/>
</clipPath>
</defs>
</svg>
