<svg width="60" height="61" viewBox="0 0 60 61" fill="none" xmlns="http://www.w3.org/2000/svg">
<g clip-path="url(#clip0_17378_1604)">
<path d="M47.214 26H57C57.7944 26.0039 58.5552 26.3213 59.117 26.883C59.6787 27.4448 59.9961 28.2056 60 29V48C60 48.8 59.678 49.566 59.108 50.126L51.15 58.084C50.588 58.669 49.811 59 49 59H28C27.26 58.997 26.547 58.72 26 58.22C25.4533 58.7194 24.7404 58.9974 24 59H3C2.20435 59 1.44129 58.6839 0.87868 58.1213C0.31607 57.5587 0 56.7957 0 56V36C0.00175937 35.43 0.165884 34.8722 0.473155 34.3921C0.780426 33.912 1.21812 33.5294 1.735 33.289L10.947 26.819C11.501 26.293 12.236 26 13 26V12C13.0018 11.43 13.1659 10.8722 13.4732 10.3921C13.7804 9.912 14.2181 9.52936 14.735 9.289L23.947 2.819C24.501 2.293 25.236 2 26 2H45C45.7957 2 46.5587 2.31607 47.1213 2.87868C47.6839 3.44129 48 4.20435 48 5V24C47.9958 24.7412 47.7155 25.4542 47.214 26Z" fill="#E31E24"/>
<path d="M57 26H47.214C47.7155 25.4542 47.9958 24.7412 48 24V5C48 4.20435 47.6839 3.44129 47.1213 2.87868C46.5587 2.31607 45.7957 2 45 2H26C25.236 2 24.501 2.293 23.947 2.819L14.735 9.289C14.2181 9.52936 13.7804 9.912 13.4732 10.3921C13.1659 10.8722 13.0018 11.43 13 12V26C12.236 26 11.501 26.293 10.947 26.819L1.735 33.289C1.21812 33.5294 0.780426 33.912 0.473155 34.3921C0.165884 34.8722 0.00175937 35.43 0 36L0 56C0 56.7957 0.31607 57.5587 0.87868 58.1213C1.44129 58.6839 2.20435 59 3 59H24C24.7404 58.9974 25.4533 58.7194 26 58.22C26.547 58.72 27.26 58.997 28 59H49C49.811 59 50.588 58.669 51.15 58.084L59.108 50.126C59.678 49.566 60 48.8 60 48V29C59.9961 28.2056 59.6787 27.4448 59.117 26.883C58.5552 26.3213 57.7944 26.0039 57 26ZM50.334 33.327C49.9211 33.1151 49.4641 33.0031 49 33H40.234L45.234 28H56.422L50.334 33.327ZM24 33H16C15.7348 33 15.4804 32.8946 15.2929 32.7071C15.1054 32.5196 15 32.2652 15 32V12C15 11.7348 15.1054 11.4804 15.2929 11.2929C15.4804 11.1054 15.7348 11 16 11H37C37.2652 11 37.5196 11.1054 37.7071 11.2929C37.8946 11.4804 38 11.7348 38 12V32C38.0009 32.2618 37.8985 32.5133 37.715 32.7L37.695 32.72C37.5087 32.9004 37.2593 33.0009 37 33H24ZM39.727 10.766L46 5.277V24C45.9993 24.1308 45.9724 24.2601 45.9209 24.3804C45.8693 24.5006 45.7942 24.6093 45.7 24.7L40 30.409V12C39.9988 11.5738 39.9057 11.1529 39.727 10.766ZM38.334 9.327C37.9211 9.11506 37.4641 9.00305 37 9H29.915L36.343 4H44.422L38.334 9.327ZM25.165 4.408C25.2156 4.37245 25.2628 4.33227 25.306 4.288C25.3967 4.1963 25.5049 4.1236 25.624 4.07415C25.7432 4.0247 25.871 3.99949 26 4H33.085L26.657 9H18.627L25.165 4.408ZM12.165 28.408C12.2156 28.3724 12.2628 28.3323 12.306 28.288C12.3967 28.1963 12.5049 28.1236 12.624 28.0742C12.7432 28.0247 12.871 27.9995 13 28V32C13.003 32.341 13.066 32.68 13.184 33H5.627L12.165 28.408ZM3 57C2.73478 57 2.48043 56.8946 2.29289 56.7071C2.10536 56.5196 2 56.2652 2 56V36C2 35.7348 2.10536 35.4804 2.29289 35.2929C2.48043 35.1054 2.73478 35 3 35H24C24.2652 35 24.5196 35.1054 24.7071 35.2929C24.8946 35.4804 25 35.7348 25 36V56C25 56.2618 24.8973 56.5131 24.714 56.7L24.696 56.717C24.51 56.8989 24.2601 57.0005 24 57H3ZM28 57C27.7348 57 27.4804 56.8946 27.2929 56.7071C27.1054 56.5196 27 56.2652 27 56V36C27 35.7348 27.1054 35.4804 27.2929 35.2929C27.4804 35.1054 27.7348 35 28 35H49C49.2652 35 49.5196 35.1054 49.7071 35.2929C49.8946 35.4804 50 35.7348 50 36V56C49.9982 56.2555 49.8988 56.5006 49.722 56.685L49.7 56.7L49.686 56.716C49.5023 56.8952 49.2566 56.9969 49 57H28ZM57.7 48.7L52 54.4V36C51.9988 35.5738 51.9057 35.1529 51.727 34.766L58 29.277V48C57.9993 48.1308 57.9724 48.2601 57.9209 48.3804C57.8693 48.5006 57.7942 48.6093 57.7 48.7Z" fill="white"/>
<path d="M23 25H19C18.4696 25 17.9609 25.2107 17.5858 25.5858C17.2107 25.9609 17 26.4696 17 27V29C17 29.5304 17.2107 30.0391 17.5858 30.4142C17.9609 30.7893 18.4696 31 19 31H23C23.5304 31 24.0391 30.7893 24.4142 30.4142C24.7893 30.0391 25 29.5304 25 29V27C25 26.4696 24.7893 25.9609 24.4142 25.5858C24.0391 25.2107 23.5304 25 23 25ZM19 29V27H23V29H19ZM35 25H32C31.7348 25 31.4804 25.1054 31.2929 25.2929C31.1054 25.4804 31 25.7348 31 26C31 26.2652 31.1054 26.5196 31.2929 26.7071C31.4804 26.8946 31.7348 27 32 27H35C35.2652 27 35.5196 26.8946 35.7071 26.7071C35.8946 26.5196 36 26.2652 36 26C36 25.7348 35.8946 25.4804 35.7071 25.2929C35.5196 25.1054 35.2652 25 35 25ZM35 29H32C31.7348 29 31.4804 29.1054 31.2929 29.2929C31.1054 29.4804 31 29.7348 31 30C31 30.2652 31.1054 30.5196 31.2929 30.7071C31.4804 30.8946 31.7348 31 32 31H35C35.2652 31 35.5196 30.8946 35.7071 30.7071C35.8946 30.5196 36 30.2652 36 30C36 29.7348 35.8946 29.4804 35.7071 29.2929C35.5196 29.1054 35.2652 29 35 29ZM10 49H6C5.46957 49 4.96086 49.2107 4.58579 49.5858C4.21071 49.9609 4 50.4696 4 51V53C4 53.5304 4.21071 54.0391 4.58579 54.4142C4.96086 54.7893 5.46957 55 6 55H10C10.5304 55 11.0391 54.7893 11.4142 54.4142C11.7893 54.0391 12 53.5304 12 53V51C12 50.4696 11.7893 49.9609 11.4142 49.5858C11.0391 49.2107 10.5304 49 10 49ZM6 53V51H10V53H6ZM22 49H19C18.7348 49 18.4804 49.1054 18.2929 49.2929C18.1054 49.4804 18 49.7348 18 50C18 50.2652 18.1054 50.5196 18.2929 50.7071C18.4804 50.8946 18.7348 51 19 51H22C22.2652 51 22.5196 50.8946 22.7071 50.7071C22.8946 50.5196 23 50.2652 23 50C23 49.7348 22.8946 49.4804 22.7071 49.2929C22.5196 49.1054 22.2652 49 22 49ZM22 53H19C18.7348 53 18.4804 53.1054 18.2929 53.2929C18.1054 53.4804 18 53.7348 18 54C18 54.2652 18.1054 54.5196 18.2929 54.7071C18.4804 54.8946 18.7348 55 19 55H22C22.2652 55 22.5196 54.8946 22.7071 54.7071C22.8946 54.5196 23 54.2652 23 54C23 53.7348 22.8946 53.4804 22.7071 53.2929C22.5196 53.1054 22.2652 53 22 53ZM35 49H31C30.4696 49 29.9609 49.2107 29.5858 49.5858C29.2107 49.9609 29 50.4696 29 51V53C29 53.5304 29.2107 54.0391 29.5858 54.4142C29.9609 54.7893 30.4696 55 31 55H35C35.5304 55 36.0391 54.7893 36.4142 54.4142C36.7893 54.0391 37 53.5304 37 53V51C37 50.4696 36.7893 49.9609 36.4142 49.5858C36.0391 49.2107 35.5304 49 35 49ZM31 53V51H35V53H31ZM47 49H44C43.7348 49 43.4804 49.1054 43.2929 49.2929C43.1054 49.4804 43 49.7348 43 50C43 50.2652 43.1054 50.5196 43.2929 50.7071C43.4804 50.8946 43.7348 51 44 51H47C47.2652 51 47.5196 50.8946 47.7071 50.7071C47.8946 50.5196 48 50.2652 48 50C48 49.7348 47.8946 49.4804 47.7071 49.2929C47.5196 49.1054 47.2652 49 47 49ZM47 53H44C43.7348 53 43.4804 53.1054 43.2929 53.2929C43.1054 53.4804 43 53.7348 43 54C43 54.2652 43.1054 54.5196 43.2929 54.7071C43.4804 54.8946 43.7348 55 44 55H47C47.2652 55 47.5196 54.8946 47.7071 54.7071C47.8946 54.5196 48 54.2652 48 54C48 53.7348 47.8946 53.4804 47.7071 53.2929C47.5196 53.1054 47.2652 53 47 53Z" fill="white"/>
</g>
<defs>
<clipPath id="clip0_17378_1604">
<rect width="60" height="60" fill="white" transform="translate(0 0.5)"/>
</clipPath>
</defs>
</svg>
