<svg width="60" height="61" viewBox="0 0 60 61" fill="none" xmlns="http://www.w3.org/2000/svg">
<path d="M54.8985 15.2291C52.1625 13.0486 48.3008 11.2633 43.4207 9.92319C34.035 7.34577 23.451 7.06757 19.3361 7.06757C8.6741 7.06757 0 15.7418 0 26.4037V34.5963C0 45.2584 8.6741 53.9325 19.3361 53.9325C24.2524 53.9325 27.9446 52.3924 31.8537 50.7619C35.8962 49.0757 40.0761 47.3321 45.955 47.3321C53.6994 47.3321 60 41.0314 60 33.2871V25.0945C60 21.2462 58.2836 17.927 54.8985 15.2291Z" fill="#E31E24"/>
<path d="M54.8985 15.2291C52.1625 13.0486 48.3008 11.2633 43.4207 9.92319C34.035 7.34577 23.451 7.06757 19.3361 7.06757C8.6741 7.06757 0 15.7418 0 26.4037V34.5963C0 45.2584 8.6741 53.9325 19.3361 53.9325C24.2524 53.9325 27.9446 52.3924 31.8537 50.7619C35.8962 49.0757 40.0761 47.3321 45.955 47.3321C53.6994 47.3321 60 41.0314 60 33.2871V25.0945C60 21.2462 58.2836 17.927 54.8985 15.2291ZM53.9116 35.2628C54.3553 35.7342 55.097 35.7564 55.5682 35.3128C56.3574 34.5693 57.0581 33.7372 57.6562 32.8329V33.2871C57.6562 39.7393 52.4071 44.9884 45.955 44.9884C39.6069 44.9884 35.2068 46.8238 30.9514 48.5987C27.2651 50.1363 23.7832 51.5887 19.3361 51.5887C10.3337 51.5887 2.94516 44.5513 2.37984 35.689C5.67047 41.6741 12.0371 45.7397 19.3361 45.7397C24.2524 45.7397 27.9446 44.1996 31.8537 42.5691C35.8962 40.8828 40.0761 39.1393 45.955 39.1393C46.3917 39.1393 46.8329 39.1187 47.2665 39.0782C47.9109 39.0178 48.3844 38.4465 48.324 37.8021C48.2637 37.1578 47.6917 36.6845 47.048 36.7447C46.6867 36.7785 46.3191 36.7957 45.955 36.7957C39.6069 36.7957 35.2068 38.6311 30.9514 40.406C27.2651 41.9436 23.7832 43.396 19.3361 43.396C9.96645 43.396 2.34375 35.7733 2.34375 26.4039C2.34375 17.0342 9.96645 9.41143 19.3361 9.41143C23.3559 9.41143 33.6893 9.68155 42.8 12.1834C52.6579 14.8905 57.6562 19.2344 57.6562 25.0945C57.6562 28.2932 56.3095 31.3956 53.9616 33.6062C53.4903 34.0499 53.468 34.7915 53.9116 35.2628Z" fill="white"/>
<path d="M52.948 36.0107C52.6724 35.4252 51.9741 35.1738 51.3887 35.4494C51.3803 35.4533 51.3692 35.4588 51.3608 35.4629C50.7821 35.7523 50.5475 36.4563 50.8368 37.0351C50.9752 37.3119 51.2174 37.5227 51.5107 37.6215C51.8039 37.7204 52.1244 37.6992 52.4021 37.5627C52.9766 37.2822 53.2212 36.5912 52.948 36.0107ZM27.7955 12.0854L27.7351 12.0805C27.089 12.0301 26.5252 12.5103 26.4737 13.1556C26.4223 13.8007 26.9036 14.3654 27.5487 14.417L27.6086 14.4216C27.6403 14.4242 27.6719 14.4255 27.7033 14.4255C28.3081 14.4255 28.821 13.9603 28.8702 13.347C28.9218 12.7018 28.4406 12.1371 27.7955 12.0854Z" fill="white"/>
<path d="M54.5808 21.9375C53.4184 19.6401 50.8321 17.6547 46.8934 16.0366C43.7065 14.7273 40.2212 13.9002 37.8586 13.4367C36.4426 13.1591 34.9588 12.9111 33.4482 12.6999C32.8076 12.6095 32.2151 13.0571 32.1253 13.6983C32.0357 14.3393 32.4826 14.9314 33.1236 15.0211C34.592 15.2264 36.0333 15.4672 37.4075 15.7367C45.4571 17.3154 50.9543 19.9611 52.4894 22.9953C52.8119 23.633 52.9687 24.3196 52.9687 25.0944C52.9687 28.9617 49.8224 32.1081 45.955 32.1081C42.0446 32.1081 38.2474 32.7471 34.3462 34.0618C32.666 34.6282 31.0345 35.3052 29.4568 35.96C28.4133 36.393 27.3342 36.8409 26.2631 37.2467C23.5602 38.2712 21.4884 38.7083 19.336 38.7083C12.5511 38.7083 7.03112 33.1884 7.03112 26.4036C7.03112 19.6187 12.5511 14.0987 19.336 14.0987C20.8932 14.0989 22.4501 14.1328 24.0057 14.2005C24.6518 14.2298 25.1996 13.728 25.2281 13.0814C25.2567 12.4349 24.7556 11.8875 24.1091 11.859C22.519 11.7898 20.9275 11.7551 19.3359 11.7549C11.2587 11.7549 4.68726 18.3262 4.68726 26.4036C4.68726 34.4808 11.2585 41.0521 19.3359 41.0521C21.7892 41.0521 24.1093 40.5695 27.0936 39.4384C28.1988 39.0196 29.295 38.5646 30.3552 38.1246C31.8966 37.485 33.4904 36.8235 35.0947 36.2828C38.7507 35.0506 42.3032 34.4517 45.955 34.4517C51.1147 34.4519 55.3125 30.2542 55.3125 25.0945C55.3125 23.9435 55.0731 22.9108 54.5808 21.9375Z" fill="white"/>
<path d="M20.4584 16.4164C17.1823 16.4164 14.5168 18.8334 14.5168 21.8044C14.5168 24.7753 17.1823 27.1923 20.4584 27.1923C23.7346 27.1923 26.3999 24.7753 26.3999 21.8044C26.3999 18.8334 23.7346 16.4164 20.4584 16.4164ZM20.4584 24.8484C18.4745 24.8484 16.8606 23.4828 16.8606 21.8043C16.8606 20.1258 18.4745 18.7601 20.4584 18.7601C22.4422 18.7601 24.0561 20.1257 24.0561 21.8043C24.0561 23.4828 22.4422 24.8484 20.4584 24.8484Z" fill="white"/>
</svg>
