<svg width="61" height="60" viewBox="0 0 61 60" fill="none" xmlns="http://www.w3.org/2000/svg">
<path d="M13.1988 21.2315C10.5826 22.6203 9.50875 26.0225 8.3249 28.5341C7.56191 27.3272 5.60964 26.3619 4.77877 26.309C3.14961 25.9153 -0.182011 27.4847 0.867436 29.847C2.21285 32.6165 7.81714 32.7048 9.43408 30.6616C10.0817 29.828 10.698 28.1635 11.2533 26.9579C10.5446 36.1328 4.88738 33.8533 5.14397 47.7297C5.14397 47.9997 5.25125 48.2587 5.4422 48.4497C5.63315 48.6406 5.89214 48.7479 6.16219 48.7479H11.3673C11.6256 48.7478 11.8741 48.6496 12.0626 48.4731C12.2512 48.2967 12.3656 48.0552 12.3829 47.7976C12.5553 45.2588 13.469 41.3461 14.9026 40.9687C16.0607 40.7691 17.3043 40.5614 18.5831 40.3605C18.8547 50.0594 16.6567 48.6732 24.3341 48.7465C26.976 48.6189 22.7579 43.5264 26.2863 39.6789C28.4314 39.7034 30.3592 39.9953 31.8037 40.7379C32.8274 43.6731 33.3284 47.7976 33.3338 47.8491C33.3634 48.0966 33.4826 48.3246 33.669 48.49C33.8554 48.6553 34.096 48.7466 34.3452 48.7465C42.9404 48.8891 39.6644 48.9027 38.2104 41.8471C39.5865 41.8343 40.9566 41.6644 42.2941 41.3407C46.0548 49.8354 43.2336 48.7072 50.201 48.7452C50.3622 48.7436 50.5209 48.7041 50.664 48.6297C50.8071 48.5554 50.9306 48.4483 51.0245 48.3172C51.1184 48.1861 51.1801 48.0347 51.2045 47.8753C51.2289 47.7159 51.2153 47.5529 51.1649 47.3998L47.8794 37.7171C49.4136 35.6305 49.5928 32.55 50.964 30.7186C51.8301 29.8253 55.3016 33.5574 56.666 32.9342C59.5917 31.8793 61.491 26.4923 60.5407 25.432C59.6406 24.0621 58.5816 22.6515 57.6584 20.7305C61.3756 16.7499 59.9583 13.5663 58.0549 11.5665C57.9627 11.4696 57.8523 11.3918 57.7301 11.3375C57.6079 11.2833 57.4761 11.2537 57.3424 11.2503C57.2087 11.247 57.0757 11.27 56.9509 11.3181C56.8261 11.3662 56.712 11.4383 56.6151 11.5305C56.5182 11.6227 56.4404 11.733 56.3862 11.8553C56.3319 11.9775 56.3023 12.1093 56.2989 12.2429C56.2956 12.3766 56.3186 12.5097 56.3667 12.6345C56.4148 12.7593 56.487 12.8734 56.5791 12.9703C57.7738 14.2247 58.7961 15.9571 56.8588 18.5271C56.2221 16.7431 54.4748 15.4968 53.2 14.7936C53.743 14.1148 55.8066 13.6111 55.4509 12.3403C55.3832 12.1257 55.2463 11.9395 55.0616 11.8108C54.8769 11.6822 54.6548 11.6182 54.43 11.6289C51.1554 11.7919 48.6859 12.8237 47.0812 14.2302C39.9169 11.28 34.6167 18.2216 27.9386 19.491C24.0938 20.1521 16.1761 19.7109 13.1988 21.2315ZM4.64572 30.0153C2.02685 29.7261 1.75804 27.9028 4.29952 28.0454C5.75083 28.264 6.57898 29.0419 6.76226 29.9135C6.06519 30.0626 5.34844 30.097 4.64029 30.0153H4.64572ZM20.5856 46.7142C20.5354 45.4923 20.6644 41.4194 20.6209 40.0767C21.6704 39.9409 22.7253 39.8323 23.7598 39.7617C22.7456 41.6434 22.489 44.0491 23.0362 46.7142H20.5856ZM46.6114 46.7142L44.2342 40.7053C44.9859 40.3916 45.6894 39.9729 46.3236 39.4617L48.7836 46.7142H46.6114ZM14.1722 23.0208C16.9689 21.7664 24.7061 22.156 28.2712 21.4989C34.0411 20.8432 39.7771 13.9668 45.6488 15.9326C43.7346 19.0905 45.5497 22.7303 49.5968 23.1131C49.7312 23.1323 49.868 23.1245 49.9992 23.0901C50.1305 23.0557 50.2535 22.9954 50.3611 22.9127C50.4688 22.8301 50.5588 22.7268 50.6259 22.6088C50.693 22.4909 50.7359 22.3608 50.752 22.226C50.7681 22.0913 50.7571 21.9547 50.7197 21.8243C50.6822 21.6939 50.6191 21.5722 50.534 21.4665C50.4489 21.3609 50.3436 21.2732 50.2241 21.2089C50.1047 21.1445 49.9736 21.1046 49.8385 21.0916C44.9945 20.4508 46.9101 15.6475 50.535 14.5207C48.9058 16.4879 48.6003 18.3546 51.2776 19.8874C52.4424 20.5092 53.3928 18.6655 52.2103 18.0777C51.3645 17.6704 51.0644 17.1477 51.7093 16.3128C52.8687 16.8721 54.6554 18.003 55.0111 19.4231C55.7401 22.1737 57.5906 24.6608 58.7798 26.4583C58.9658 27.1548 56.9932 30.7417 56.2886 30.9317C51.8383 28.245 49.6864 26.5221 47.7247 32.998C46.4526 38.6498 42.2168 39.8025 38.0855 39.8093C38.7548 36.9718 40.0459 30.8896 40.0676 30.6195C40.3392 29.3297 38.3027 28.9251 38.0692 30.2271C38.0583 30.2841 36.9315 35.9984 36.1916 38.8684C35.5929 41.1886 36.7442 44.7171 37.5289 46.7087H35.2345C34.9792 44.9669 34.3181 41.1099 33.1682 38.6865C31.8431 35.8911 31.6748 32.1224 31.6748 32.0843C31.6177 30.7579 29.5922 30.8326 29.6383 32.1658C29.6383 32.3124 29.7741 35.3264 30.7706 38.1882C27.1471 37.2243 22.2963 37.7185 17.9383 38.3973C18.9701 37.2569 21.6622 31.3051 21.65 31.0349C22.1293 29.813 20.1879 29.0758 19.7493 30.3221C19.1885 31.781 18.5514 33.2094 17.8405 34.6014C15.8285 38.4476 14.8076 38.8779 14.3691 39.0055C12.1439 39.2282 10.603 44.1903 10.4523 46.7087H7.20349C7.21571 34.133 13.0657 36.6053 13.3508 26.2085C13.4717 24.4314 13.583 23.31 14.1722 23.0208Z" fill="white"/>
</svg>
