<svg width="61" height="60" viewBox="0 0 61 60" fill="none" xmlns="http://www.w3.org/2000/svg">
<mask id="path-1-outside-1_19001_994" maskUnits="userSpaceOnUse" x="1.65881" y="0.328232" width="58" height="59" fill="black">
<rect fill="white" x="1.65881" y="0.328232" width="58" height="59"/>
<path d="M8.00379 44.3809C11.1016 49.6553 16.7089 53.1272 23.0038 53.6681C23.8419 53.7401 24.664 53.775 25.471 53.7803L26.5051 55.5785C25.5151 55.9946 24.6697 56.6935 24.075 57.5876C24.0069 57.6943 23.9687 57.8174 23.9645 57.9438C23.9603 58.0703 23.9901 58.1956 24.0509 58.3066C24.1118 58.4176 24.2013 58.5102 24.3102 58.5747C24.4191 58.6392 24.5433 58.6733 24.6699 58.6733H32.5357C32.7229 58.6733 32.9024 58.5989 33.0348 58.4665C33.1672 58.3342 33.2416 58.1546 33.2416 57.9674C33.2416 57.7802 33.1672 57.6007 33.0348 57.4683C32.9024 57.3359 32.7229 57.2615 32.5357 57.2615H26.3532C26.7791 56.9837 27.2439 56.7707 27.7323 56.6294C27.8349 56.5995 27.9294 56.5467 28.0086 56.4749C28.0878 56.4032 28.1497 56.3144 28.1896 56.2153C28.2295 56.1162 28.2463 56.0093 28.2389 55.9027C28.2315 55.796 28.1999 55.6925 28.1467 55.5999L27.0834 53.7512C27.5212 53.732 27.9533 53.7043 28.3796 53.6681L28.6763 54.2419C28.9928 54.8576 29.4732 55.3738 30.0645 55.7338C30.6558 56.0938 31.335 56.2834 32.0273 56.2819H32.4137C32.7805 56.2831 33.1371 56.4031 33.43 56.6239C33.7229 56.8447 33.9364 57.1545 34.0385 57.5068L34.2259 58.1612C34.2774 58.3412 34.3983 58.4934 34.562 58.5842C34.7256 58.6751 34.9187 58.6972 35.0987 58.6458C35.2787 58.5943 35.4309 58.4734 35.5218 58.3097C35.6127 58.146 35.6348 57.9529 35.5833 57.7729L35.3957 57.1188C35.2083 56.4721 34.8164 55.9036 34.2787 55.4984C33.7411 55.0931 33.0866 54.873 32.4134 54.8709H32.0269C31.5938 54.8718 31.1688 54.7531 30.7988 54.5279C30.4288 54.3027 30.1282 53.9797 29.9301 53.5945L29.8856 53.5083C32.1967 53.2044 34.4723 52.6744 36.6797 51.9258L38.7797 55.5787C37.7897 55.9948 36.9443 56.6936 36.3496 57.5878C36.2815 57.6945 36.2433 57.8175 36.2391 57.944C36.2349 58.0705 36.2647 58.1958 36.3255 58.3068C36.3864 58.4178 36.4759 58.5104 36.5848 58.5749C36.6937 58.6394 36.8179 58.6734 36.9444 58.6735H44.7598C44.947 58.6735 45.1265 58.5991 45.2589 58.4667C45.3913 58.3343 45.4657 58.1548 45.4657 57.9676C45.4657 57.7804 45.3913 57.6008 45.2589 57.4685C45.1265 57.3361 44.947 57.2617 44.7598 57.2617H38.6287C39.0544 56.9842 39.5189 56.7714 40.0071 56.6303C40.1097 56.6004 40.2041 56.5476 40.2834 56.4758C40.3626 56.4041 40.4244 56.3153 40.4643 56.2162C40.5042 56.117 40.5211 56.0101 40.5137 55.9035C40.5062 55.7969 40.4747 55.6934 40.4214 55.6008L38.0292 51.4412C38.4563 51.2782 38.8629 51.1149 39.2491 50.9511L40.9512 54.2432C41.2679 54.8588 41.7484 55.375 42.3399 55.7349C42.9313 56.0948 43.6106 56.2843 44.3029 56.2826H44.6894C45.0562 56.2838 45.4127 56.4038 45.7056 56.6246C45.9985 56.8453 46.212 57.1551 46.3141 57.5074L46.4433 57.9579C46.4965 58.1359 46.6177 58.2858 46.7806 58.3751C46.9436 58.4643 47.1352 58.4857 47.3138 58.4346C47.4925 58.3835 47.6438 58.264 47.7349 58.1021C47.826 57.9402 47.8496 57.7489 47.8006 57.5696L47.6716 57.1193C47.4841 56.4727 47.0922 55.9042 46.5545 55.499C46.0169 55.0937 45.3624 54.8736 44.6892 54.8714H44.3029C43.8698 54.8723 43.4448 54.7537 43.0748 54.5284C42.7048 54.3032 42.4042 53.9802 42.2061 53.595L40.5418 50.3755C41.6729 49.8574 42.7663 49.2607 43.8141 48.5898L43.8335 48.5763C52.5446 42.3072 53.5115 34.7285 52.7883 29.4748C52.2778 25.9465 51.0255 22.5664 49.114 19.5572C48.3563 18.3918 47.8165 17.0985 47.5209 15.7403C47.451 15.3747 47.4708 14.9976 47.5784 14.6413C47.686 14.285 47.8782 13.96 48.1387 13.6941C49.258 12.5352 50.6742 10.6412 51.0639 8.19635C51.0651 8.18894 51.0656 8.18135 51.0667 8.17394C52.6616 9.5107 54.7493 10.8519 57.0196 11.2368C57.1004 11.2507 57.1764 11.2847 57.2406 11.3356C57.3049 11.3865 57.3553 11.4528 57.3873 11.5283C57.4193 11.5989 57.4331 11.6763 57.4275 11.7536C57.4219 11.8308 57.397 11.9055 57.3552 11.9707C56.4942 13.2873 54.375 13.7409 51.2366 13.2847C51.219 13.2817 50.7845 13.2141 50.1164 13.1509C50.0225 13.139 49.9271 13.1461 49.836 13.1718C49.7449 13.1975 49.6599 13.2412 49.586 13.3004C49.5121 13.3597 49.4509 13.4331 49.406 13.5165C49.3611 13.5998 49.3335 13.6913 49.3247 13.7856C49.3159 13.8799 49.3261 13.9749 49.3548 14.0651C49.3835 14.1554 49.4301 14.2389 49.4917 14.3107C49.5533 14.3826 49.6288 14.4413 49.7136 14.4834C49.7984 14.5255 49.8908 14.5502 49.9853 14.5558C50.6052 14.6141 51.0128 14.6779 51.0256 14.6793C51.8039 14.7971 52.5897 14.8586 53.3769 14.8634C56.4317 14.8634 57.8654 13.7693 58.5376 12.7421C58.708 12.4809 58.8104 12.1813 58.8356 11.8704C58.8608 11.5596 58.8079 11.2474 58.6817 10.9622C58.5562 10.6718 58.36 10.4174 58.1111 10.2221C57.8622 10.0268 57.5685 9.89678 57.2566 9.84388C54.7057 9.41153 52.3154 7.46558 51.0356 6.25341C50.7974 4.96137 50.1114 3.79465 49.0981 2.95835C48.382 2.35046 47.5487 1.89612 46.6497 1.6235C45.7508 1.35087 44.8055 1.26577 43.8723 1.37347C42.318 1.56536 40.86 2.22912 39.6946 3.27529C37.7477 4.99287 36.4316 7.31249 35.9559 9.8647C35.2 13.7361 36.15 18.2647 38.7783 23.3268C38.7803 23.3305 38.7833 23.3335 38.7854 23.3373C38.7875 23.3412 38.7877 23.3437 38.7894 23.3469C38.8916 23.5338 39.3503 24.5079 38.3283 25.3364C38.1829 25.4543 38.0902 25.6251 38.0708 25.8114C38.0513 25.9976 38.1066 26.1839 38.2245 26.3293C38.3424 26.4748 38.5132 26.5674 38.6994 26.5869C38.8856 26.6064 39.0719 26.5511 39.2174 26.4332C39.7811 26.0079 40.1733 25.3942 40.3223 24.704C40.4713 24.0137 40.3673 23.2929 40.0291 22.6729C34.5031 12.0318 38.0308 6.61623 40.6256 4.3357C41.5754 3.47992 42.7646 2.93562 44.0331 2.77605C45.5523 2.60117 46.9551 3.02964 48.2031 4.05105C48.7679 4.52053 49.2003 5.12937 49.4576 5.8173C49.7148 6.50523 49.7879 7.24841 49.6697 7.97329C49.3378 10.0556 48.1018 11.6993 47.1233 12.7122C46.7044 13.1419 46.3957 13.6667 46.2236 14.2415C46.0515 14.8164 46.0211 15.4244 46.135 16.0136C46.465 17.5449 47.0713 19.0033 47.9241 20.3172C47.9294 20.3257 47.9347 20.3338 47.9403 20.3419C49.7249 23.1769 50.8993 26.3525 51.3887 29.6665C52.363 36.7456 49.5471 42.7191 43.0187 47.4217C42.7037 47.6287 34.0784 53.2022 23.1241 52.2611C17.2853 51.7597 12.0875 48.5471 9.22056 43.6659C7.68685 41.0541 7.06656 38.451 7.36867 35.9098C7.84537 36.2374 8.37228 36.485 8.92867 36.6431C9.11022 36.6888 9.30251 36.6606 9.46323 36.5645C9.62396 36.4685 9.73995 36.3126 9.7857 36.131C9.83145 35.9495 9.80321 35.7572 9.70719 35.5965C9.61116 35.4357 9.45522 35.3197 9.27367 35.274C8.51009 35.0815 7.62862 34.3773 7.35332 34.122C7.35173 34.1204 7.34979 34.1195 7.34803 34.1179L7.34044 34.1102C7.30656 34.0803 3.96985 31.0698 4.07238 27.1602C4.08143 26.834 4.1886 26.518 4.37991 26.2536C4.57122 25.9892 4.83779 25.7885 5.14484 25.6779C5.45189 25.5672 5.78517 25.5517 6.10118 25.6333C6.4172 25.7149 6.70129 25.8898 6.91638 26.1353C7.6072 26.931 8.38133 27.6504 9.2255 28.2812C9.3 28.337 9.38481 28.3776 9.47505 28.4005C9.5653 28.4235 9.65919 28.4283 9.75132 28.4148C9.84345 28.4013 9.93199 28.3697 10.0119 28.3218C10.0917 28.274 10.1613 28.2108 10.2167 28.1359C10.272 28.061 10.312 27.9759 10.3343 27.8855C10.3566 27.7951 10.3608 27.7012 10.3466 27.6091C10.3325 27.5171 10.3003 27.4288 10.2518 27.3493C10.2034 27.2697 10.1397 27.2006 10.0644 27.1458C9.30167 26.5751 8.60226 25.9243 7.9782 25.2046C7.57692 24.7437 7.04516 24.4155 6.45328 24.2634C5.86141 24.1114 5.23731 24.1426 4.66356 24.3529C4.08562 24.5531 3.58337 24.9264 3.22518 25.4222C2.86698 25.9179 2.67022 26.512 2.66167 27.1235C2.5602 30.9882 5.18609 33.9618 6.10144 34.8782C5.49703 38.0058 6.13603 41.2006 8.00379 44.3809Z"/>
</mask>
<path d="M8.00379 44.3809C11.1016 49.6553 16.7089 53.1272 23.0038 53.6681C23.8419 53.7401 24.664 53.775 25.471 53.7803L26.5051 55.5785C25.5151 55.9946 24.6697 56.6935 24.075 57.5876C24.0069 57.6943 23.9687 57.8174 23.9645 57.9438C23.9603 58.0703 23.9901 58.1956 24.0509 58.3066C24.1118 58.4176 24.2013 58.5102 24.3102 58.5747C24.4191 58.6392 24.5433 58.6733 24.6699 58.6733H32.5357C32.7229 58.6733 32.9024 58.5989 33.0348 58.4665C33.1672 58.3342 33.2416 58.1546 33.2416 57.9674C33.2416 57.7802 33.1672 57.6007 33.0348 57.4683C32.9024 57.3359 32.7229 57.2615 32.5357 57.2615H26.3532C26.7791 56.9837 27.2439 56.7707 27.7323 56.6294C27.8349 56.5995 27.9294 56.5467 28.0086 56.4749C28.0878 56.4032 28.1497 56.3144 28.1896 56.2153C28.2295 56.1162 28.2463 56.0093 28.2389 55.9027C28.2315 55.796 28.1999 55.6925 28.1467 55.5999L27.0834 53.7512C27.5212 53.732 27.9533 53.7043 28.3796 53.6681L28.6763 54.2419C28.9928 54.8576 29.4732 55.3738 30.0645 55.7338C30.6558 56.0938 31.335 56.2834 32.0273 56.2819H32.4137C32.7805 56.2831 33.1371 56.4031 33.43 56.6239C33.7229 56.8447 33.9364 57.1545 34.0385 57.5068L34.2259 58.1612C34.2774 58.3412 34.3983 58.4934 34.562 58.5842C34.7256 58.6751 34.9187 58.6972 35.0987 58.6458C35.2787 58.5943 35.4309 58.4734 35.5218 58.3097C35.6127 58.146 35.6348 57.9529 35.5833 57.7729L35.3957 57.1188C35.2083 56.4721 34.8164 55.9036 34.2787 55.4984C33.7411 55.0931 33.0866 54.873 32.4134 54.8709H32.0269C31.5938 54.8718 31.1688 54.7531 30.7988 54.5279C30.4288 54.3027 30.1282 53.9797 29.9301 53.5945L29.8856 53.5083C32.1967 53.2044 34.4723 52.6744 36.6797 51.9258L38.7797 55.5787C37.7897 55.9948 36.9443 56.6936 36.3496 57.5878C36.2815 57.6945 36.2433 57.8175 36.2391 57.944C36.2349 58.0705 36.2647 58.1958 36.3255 58.3068C36.3864 58.4178 36.4759 58.5104 36.5848 58.5749C36.6937 58.6394 36.8179 58.6734 36.9444 58.6735H44.7598C44.947 58.6735 45.1265 58.5991 45.2589 58.4667C45.3913 58.3343 45.4657 58.1548 45.4657 57.9676C45.4657 57.7804 45.3913 57.6008 45.2589 57.4685C45.1265 57.3361 44.947 57.2617 44.7598 57.2617H38.6287C39.0544 56.9842 39.5189 56.7714 40.0071 56.6303C40.1097 56.6004 40.2041 56.5476 40.2834 56.4758C40.3626 56.4041 40.4244 56.3153 40.4643 56.2162C40.5042 56.117 40.5211 56.0101 40.5137 55.9035C40.5062 55.7969 40.4747 55.6934 40.4214 55.6008L38.0292 51.4412C38.4563 51.2782 38.8629 51.1149 39.2491 50.9511L40.9512 54.2432C41.2679 54.8588 41.7484 55.375 42.3399 55.7349C42.9313 56.0948 43.6106 56.2843 44.3029 56.2826H44.6894C45.0562 56.2838 45.4127 56.4038 45.7056 56.6246C45.9985 56.8453 46.212 57.1551 46.3141 57.5074L46.4433 57.9579C46.4965 58.1359 46.6177 58.2858 46.7806 58.3751C46.9436 58.4643 47.1352 58.4857 47.3138 58.4346C47.4925 58.3835 47.6438 58.264 47.7349 58.1021C47.826 57.9402 47.8496 57.7489 47.8006 57.5696L47.6716 57.1193C47.4841 56.4727 47.0922 55.9042 46.5545 55.499C46.0169 55.0937 45.3624 54.8736 44.6892 54.8714H44.3029C43.8698 54.8723 43.4448 54.7537 43.0748 54.5284C42.7048 54.3032 42.4042 53.9802 42.2061 53.595L40.5418 50.3755C41.6729 49.8574 42.7663 49.2607 43.8141 48.5898L43.8335 48.5763C52.5446 42.3072 53.5115 34.7285 52.7883 29.4748C52.2778 25.9465 51.0255 22.5664 49.114 19.5572C48.3563 18.3918 47.8165 17.0985 47.5209 15.7403C47.451 15.3747 47.4708 14.9976 47.5784 14.6413C47.686 14.285 47.8782 13.96 48.1387 13.6941C49.258 12.5352 50.6742 10.6412 51.0639 8.19635C51.0651 8.18894 51.0656 8.18135 51.0667 8.17394C52.6616 9.5107 54.7493 10.8519 57.0196 11.2368C57.1004 11.2507 57.1764 11.2847 57.2406 11.3356C57.3049 11.3865 57.3553 11.4528 57.3873 11.5283C57.4193 11.5989 57.4331 11.6763 57.4275 11.7536C57.4219 11.8308 57.397 11.9055 57.3552 11.9707C56.4942 13.2873 54.375 13.7409 51.2366 13.2847C51.219 13.2817 50.7845 13.2141 50.1164 13.1509C50.0225 13.139 49.9271 13.1461 49.836 13.1718C49.7449 13.1975 49.6599 13.2412 49.586 13.3004C49.5121 13.3597 49.4509 13.4331 49.406 13.5165C49.3611 13.5998 49.3335 13.6913 49.3247 13.7856C49.3159 13.8799 49.3261 13.9749 49.3548 14.0651C49.3835 14.1554 49.4301 14.2389 49.4917 14.3107C49.5533 14.3826 49.6288 14.4413 49.7136 14.4834C49.7984 14.5255 49.8908 14.5502 49.9853 14.5558C50.6052 14.6141 51.0128 14.6779 51.0256 14.6793C51.8039 14.7971 52.5897 14.8586 53.3769 14.8634C56.4317 14.8634 57.8654 13.7693 58.5376 12.7421C58.708 12.4809 58.8104 12.1813 58.8356 11.8704C58.8608 11.5596 58.8079 11.2474 58.6817 10.9622C58.5562 10.6718 58.36 10.4174 58.1111 10.2221C57.8622 10.0268 57.5685 9.89678 57.2566 9.84388C54.7057 9.41153 52.3154 7.46558 51.0356 6.25341C50.7974 4.96137 50.1114 3.79465 49.0981 2.95835C48.382 2.35046 47.5487 1.89612 46.6497 1.6235C45.7508 1.35087 44.8055 1.26577 43.8723 1.37347C42.318 1.56536 40.86 2.22912 39.6946 3.27529C37.7477 4.99287 36.4316 7.31249 35.9559 9.8647C35.2 13.7361 36.15 18.2647 38.7783 23.3268C38.7803 23.3305 38.7833 23.3335 38.7854 23.3373C38.7875 23.3412 38.7877 23.3437 38.7894 23.3469C38.8916 23.5338 39.3503 24.5079 38.3283 25.3364C38.1829 25.4543 38.0902 25.6251 38.0708 25.8114C38.0513 25.9976 38.1066 26.1839 38.2245 26.3293C38.3424 26.4748 38.5132 26.5674 38.6994 26.5869C38.8856 26.6064 39.0719 26.5511 39.2174 26.4332C39.7811 26.0079 40.1733 25.3942 40.3223 24.704C40.4713 24.0137 40.3673 23.2929 40.0291 22.6729C34.5031 12.0318 38.0308 6.61623 40.6256 4.3357C41.5754 3.47992 42.7646 2.93562 44.0331 2.77605C45.5523 2.60117 46.9551 3.02964 48.2031 4.05105C48.7679 4.52053 49.2003 5.12937 49.4576 5.8173C49.7148 6.50523 49.7879 7.24841 49.6697 7.97329C49.3378 10.0556 48.1018 11.6993 47.1233 12.7122C46.7044 13.1419 46.3957 13.6667 46.2236 14.2415C46.0515 14.8164 46.0211 15.4244 46.135 16.0136C46.465 17.5449 47.0713 19.0033 47.9241 20.3172C47.9294 20.3257 47.9347 20.3338 47.9403 20.3419C49.7249 23.1769 50.8993 26.3525 51.3887 29.6665C52.363 36.7456 49.5471 42.7191 43.0187 47.4217C42.7037 47.6287 34.0784 53.2022 23.1241 52.2611C17.2853 51.7597 12.0875 48.5471 9.22056 43.6659C7.68685 41.0541 7.06656 38.451 7.36867 35.9098C7.84537 36.2374 8.37228 36.485 8.92867 36.6431C9.11022 36.6888 9.30251 36.6606 9.46323 36.5645C9.62396 36.4685 9.73995 36.3126 9.7857 36.131C9.83145 35.9495 9.80321 35.7572 9.70719 35.5965C9.61116 35.4357 9.45522 35.3197 9.27367 35.274C8.51009 35.0815 7.62862 34.3773 7.35332 34.122C7.35173 34.1204 7.34979 34.1195 7.34803 34.1179L7.34044 34.1102C7.30656 34.0803 3.96985 31.0698 4.07238 27.1602C4.08143 26.834 4.1886 26.518 4.37991 26.2536C4.57122 25.9892 4.83779 25.7885 5.14484 25.6779C5.45189 25.5672 5.78517 25.5517 6.10118 25.6333C6.4172 25.7149 6.70129 25.8898 6.91638 26.1353C7.6072 26.931 8.38133 27.6504 9.2255 28.2812C9.3 28.337 9.38481 28.3776 9.47505 28.4005C9.5653 28.4235 9.65919 28.4283 9.75132 28.4148C9.84345 28.4013 9.93199 28.3697 10.0119 28.3218C10.0917 28.274 10.1613 28.2108 10.2167 28.1359C10.272 28.061 10.312 27.9759 10.3343 27.8855C10.3566 27.7951 10.3608 27.7012 10.3466 27.6091C10.3325 27.5171 10.3003 27.4288 10.2518 27.3493C10.2034 27.2697 10.1397 27.2006 10.0644 27.1458C9.30167 26.5751 8.60226 25.9243 7.9782 25.2046C7.57692 24.7437 7.04516 24.4155 6.45328 24.2634C5.86141 24.1114 5.23731 24.1426 4.66356 24.3529C4.08562 24.5531 3.58337 24.9264 3.22518 25.4222C2.86698 25.9179 2.67022 26.512 2.66167 27.1235C2.5602 30.9882 5.18609 33.9618 6.10144 34.8782C5.49703 38.0058 6.13603 41.2006 8.00379 44.3809Z" fill="white"/>
<path d="M8.00379 44.3809C11.1016 49.6553 16.7089 53.1272 23.0038 53.6681C23.8419 53.7401 24.664 53.775 25.471 53.7803L26.5051 55.5785C25.5151 55.9946 24.6697 56.6935 24.075 57.5876C24.0069 57.6943 23.9687 57.8174 23.9645 57.9438C23.9603 58.0703 23.9901 58.1956 24.0509 58.3066C24.1118 58.4176 24.2013 58.5102 24.3102 58.5747C24.4191 58.6392 24.5433 58.6733 24.6699 58.6733H32.5357C32.7229 58.6733 32.9024 58.5989 33.0348 58.4665C33.1672 58.3342 33.2416 58.1546 33.2416 57.9674C33.2416 57.7802 33.1672 57.6007 33.0348 57.4683C32.9024 57.3359 32.7229 57.2615 32.5357 57.2615H26.3532C26.7791 56.9837 27.2439 56.7707 27.7323 56.6294C27.8349 56.5995 27.9294 56.5467 28.0086 56.4749C28.0878 56.4032 28.1497 56.3144 28.1896 56.2153C28.2295 56.1162 28.2463 56.0093 28.2389 55.9027C28.2315 55.796 28.1999 55.6925 28.1467 55.5999L27.0834 53.7512C27.5212 53.732 27.9533 53.7043 28.3796 53.6681L28.6763 54.2419C28.9928 54.8576 29.4732 55.3738 30.0645 55.7338C30.6558 56.0938 31.335 56.2834 32.0273 56.2819H32.4137C32.7805 56.2831 33.1371 56.4031 33.43 56.6239C33.7229 56.8447 33.9364 57.1545 34.0385 57.5068L34.2259 58.1612C34.2774 58.3412 34.3983 58.4934 34.562 58.5842C34.7256 58.6751 34.9187 58.6972 35.0987 58.6458C35.2787 58.5943 35.4309 58.4734 35.5218 58.3097C35.6127 58.146 35.6348 57.9529 35.5833 57.7729L35.3957 57.1188C35.2083 56.4721 34.8164 55.9036 34.2787 55.4984C33.7411 55.0931 33.0866 54.873 32.4134 54.8709H32.0269C31.5938 54.8718 31.1688 54.7531 30.7988 54.5279C30.4288 54.3027 30.1282 53.9797 29.9301 53.5945L29.8856 53.5083C32.1967 53.2044 34.4723 52.6744 36.6797 51.9258L38.7797 55.5787C37.7897 55.9948 36.9443 56.6936 36.3496 57.5878C36.2815 57.6945 36.2433 57.8175 36.2391 57.944C36.2349 58.0705 36.2647 58.1958 36.3255 58.3068C36.3864 58.4178 36.4759 58.5104 36.5848 58.5749C36.6937 58.6394 36.8179 58.6734 36.9444 58.6735H44.7598C44.947 58.6735 45.1265 58.5991 45.2589 58.4667C45.3913 58.3343 45.4657 58.1548 45.4657 57.9676C45.4657 57.7804 45.3913 57.6008 45.2589 57.4685C45.1265 57.3361 44.947 57.2617 44.7598 57.2617H38.6287C39.0544 56.9842 39.5189 56.7714 40.0071 56.6303C40.1097 56.6004 40.2041 56.5476 40.2834 56.4758C40.3626 56.4041 40.4244 56.3153 40.4643 56.2162C40.5042 56.117 40.5211 56.0101 40.5137 55.9035C40.5062 55.7969 40.4747 55.6934 40.4214 55.6008L38.0292 51.4412C38.4563 51.2782 38.8629 51.1149 39.2491 50.9511L40.9512 54.2432C41.2679 54.8588 41.7484 55.375 42.3399 55.7349C42.9313 56.0948 43.6106 56.2843 44.3029 56.2826H44.6894C45.0562 56.2838 45.4127 56.4038 45.7056 56.6246C45.9985 56.8453 46.212 57.1551 46.3141 57.5074L46.4433 57.9579C46.4965 58.1359 46.6177 58.2858 46.7806 58.3751C46.9436 58.4643 47.1352 58.4857 47.3138 58.4346C47.4925 58.3835 47.6438 58.264 47.7349 58.1021C47.826 57.9402 47.8496 57.7489 47.8006 57.5696L47.6716 57.1193C47.4841 56.4727 47.0922 55.9042 46.5545 55.499C46.0169 55.0937 45.3624 54.8736 44.6892 54.8714H44.3029C43.8698 54.8723 43.4448 54.7537 43.0748 54.5284C42.7048 54.3032 42.4042 53.9802 42.2061 53.595L40.5418 50.3755C41.6729 49.8574 42.7663 49.2607 43.8141 48.5898L43.8335 48.5763C52.5446 42.3072 53.5115 34.7285 52.7883 29.4748C52.2778 25.9465 51.0255 22.5664 49.114 19.5572C48.3563 18.3918 47.8165 17.0985 47.5209 15.7403C47.451 15.3747 47.4708 14.9976 47.5784 14.6413C47.686 14.285 47.8782 13.96 48.1387 13.6941C49.258 12.5352 50.6742 10.6412 51.0639 8.19635C51.0651 8.18894 51.0656 8.18135 51.0667 8.17394C52.6616 9.5107 54.7493 10.8519 57.0196 11.2368C57.1004 11.2507 57.1764 11.2847 57.2406 11.3356C57.3049 11.3865 57.3553 11.4528 57.3873 11.5283C57.4193 11.5989 57.4331 11.6763 57.4275 11.7536C57.4219 11.8308 57.397 11.9055 57.3552 11.9707C56.4942 13.2873 54.375 13.7409 51.2366 13.2847C51.219 13.2817 50.7845 13.2141 50.1164 13.1509C50.0225 13.139 49.9271 13.1461 49.836 13.1718C49.7449 13.1975 49.6599 13.2412 49.586 13.3004C49.5121 13.3597 49.4509 13.4331 49.406 13.5165C49.3611 13.5998 49.3335 13.6913 49.3247 13.7856C49.3159 13.8799 49.3261 13.9749 49.3548 14.0651C49.3835 14.1554 49.4301 14.2389 49.4917 14.3107C49.5533 14.3826 49.6288 14.4413 49.7136 14.4834C49.7984 14.5255 49.8908 14.5502 49.9853 14.5558C50.6052 14.6141 51.0128 14.6779 51.0256 14.6793C51.8039 14.7971 52.5897 14.8586 53.3769 14.8634C56.4317 14.8634 57.8654 13.7693 58.5376 12.7421C58.708 12.4809 58.8104 12.1813 58.8356 11.8704C58.8608 11.5596 58.8079 11.2474 58.6817 10.9622C58.5562 10.6718 58.36 10.4174 58.1111 10.2221C57.8622 10.0268 57.5685 9.89678 57.2566 9.84388C54.7057 9.41153 52.3154 7.46558 51.0356 6.25341C50.7974 4.96137 50.1114 3.79465 49.0981 2.95835C48.382 2.35046 47.5487 1.89612 46.6497 1.6235C45.7508 1.35087 44.8055 1.26577 43.8723 1.37347C42.318 1.56536 40.86 2.22912 39.6946 3.27529C37.7477 4.99287 36.4316 7.31249 35.9559 9.8647C35.2 13.7361 36.15 18.2647 38.7783 23.3268C38.7803 23.3305 38.7833 23.3335 38.7854 23.3373C38.7875 23.3412 38.7877 23.3437 38.7894 23.3469C38.8916 23.5338 39.3503 24.5079 38.3283 25.3364C38.1829 25.4543 38.0902 25.6251 38.0708 25.8114C38.0513 25.9976 38.1066 26.1839 38.2245 26.3293C38.3424 26.4748 38.5132 26.5674 38.6994 26.5869C38.8856 26.6064 39.0719 26.5511 39.2174 26.4332C39.7811 26.0079 40.1733 25.3942 40.3223 24.704C40.4713 24.0137 40.3673 23.2929 40.0291 22.6729C34.5031 12.0318 38.0308 6.61623 40.6256 4.3357C41.5754 3.47992 42.7646 2.93562 44.0331 2.77605C45.5523 2.60117 46.9551 3.02964 48.2031 4.05105C48.7679 4.52053 49.2003 5.12937 49.4576 5.8173C49.7148 6.50523 49.7879 7.24841 49.6697 7.97329C49.3378 10.0556 48.1018 11.6993 47.1233 12.7122C46.7044 13.1419 46.3957 13.6667 46.2236 14.2415C46.0515 14.8164 46.0211 15.4244 46.135 16.0136C46.465 17.5449 47.0713 19.0033 47.9241 20.3172C47.9294 20.3257 47.9347 20.3338 47.9403 20.3419C49.7249 23.1769 50.8993 26.3525 51.3887 29.6665C52.363 36.7456 49.5471 42.7191 43.0187 47.4217C42.7037 47.6287 34.0784 53.2022 23.1241 52.2611C17.2853 51.7597 12.0875 48.5471 9.22056 43.6659C7.68685 41.0541 7.06656 38.451 7.36867 35.9098C7.84537 36.2374 8.37228 36.485 8.92867 36.6431C9.11022 36.6888 9.30251 36.6606 9.46323 36.5645C9.62396 36.4685 9.73995 36.3126 9.7857 36.131C9.83145 35.9495 9.80321 35.7572 9.70719 35.5965C9.61116 35.4357 9.45522 35.3197 9.27367 35.274C8.51009 35.0815 7.62862 34.3773 7.35332 34.122C7.35173 34.1204 7.34979 34.1195 7.34803 34.1179L7.34044 34.1102C7.30656 34.0803 3.96985 31.0698 4.07238 27.1602C4.08143 26.834 4.1886 26.518 4.37991 26.2536C4.57122 25.9892 4.83779 25.7885 5.14484 25.6779C5.45189 25.5672 5.78517 25.5517 6.10118 25.6333C6.4172 25.7149 6.70129 25.8898 6.91638 26.1353C7.6072 26.931 8.38133 27.6504 9.2255 28.2812C9.3 28.337 9.38481 28.3776 9.47505 28.4005C9.5653 28.4235 9.65919 28.4283 9.75132 28.4148C9.84345 28.4013 9.93199 28.3697 10.0119 28.3218C10.0917 28.274 10.1613 28.2108 10.2167 28.1359C10.272 28.061 10.312 27.9759 10.3343 27.8855C10.3566 27.7951 10.3608 27.7012 10.3466 27.6091C10.3325 27.5171 10.3003 27.4288 10.2518 27.3493C10.2034 27.2697 10.1397 27.2006 10.0644 27.1458C9.30167 26.5751 8.60226 25.9243 7.9782 25.2046C7.57692 24.7437 7.04516 24.4155 6.45328 24.2634C5.86141 24.1114 5.23731 24.1426 4.66356 24.3529C4.08562 24.5531 3.58337 24.9264 3.22518 25.4222C2.86698 25.9179 2.67022 26.512 2.66167 27.1235C2.5602 30.9882 5.18609 33.9618 6.10144 34.8782C5.49703 38.0058 6.13603 41.2006 8.00379 44.3809Z" stroke="white" stroke-width="0.8" mask="url(#path-1-outside-1_19001_994)"/>
<path d="M22.4212 40.1376C23.0671 41.574 24.2908 43.5651 26.432 44.8065L26.3316 44.9795L26.432 44.8065C28.8912 46.2324 32.0369 46.3886 35.8086 45.2263C35.9224 45.1896 36.0423 45.1758 36.1614 45.1856C36.2811 45.1955 36.3976 45.2291 36.5042 45.2845C36.6108 45.3398 36.7053 45.4158 36.7822 45.508C36.8591 45.6002 36.917 45.7067 36.9524 45.8215C36.9877 45.9362 37 46.0569 36.9883 46.1764C36.9766 46.2959 36.9413 46.4119 36.8844 46.5177C36.8275 46.6234 36.7502 46.7168 36.6569 46.7924L36.531 46.6369L36.6569 46.7924C36.5643 46.8673 36.4579 46.9233 36.3438 46.957C34.6656 47.4993 32.9158 47.7878 31.1523 47.813M22.4212 40.1376L20.3219 39.1089M22.4212 40.1376C23.8813 40.5773 25.3948 40.8171 26.9206 40.8501L26.9206 40.8502H26.9249H26.9436C27.1833 40.8531 27.4145 40.7608 27.5863 40.5936C27.7585 40.4261 27.8571 40.197 27.8604 39.9567C27.8638 39.7165 27.7715 39.4848 27.6039 39.3126C27.4365 39.1404 27.2076 39.0419 26.9675 39.0384L22.4212 40.1376ZM31.1523 47.813L31.1495 47.613L31.1528 47.813C31.1526 47.813 31.1525 47.813 31.1523 47.813ZM31.1523 47.813C29.1762 47.8455 27.2277 47.346 25.511 46.3668L25.5094 46.366C21.8839 44.2556 20.5239 40.5131 20.1544 39.2498M20.1544 39.2498C20.1812 39.2629 20.2081 39.276 20.235 39.289L20.3219 39.1089M20.1544 39.2498C20.1455 39.2195 20.1372 39.1906 20.1295 39.1633L20.3219 39.1089M20.1544 39.2498C18.9895 38.6789 17.9037 37.9602 16.9238 37.1117M20.3219 39.1089C19.0882 38.5134 17.9431 37.7503 16.9191 36.8416C16.9197 36.9292 16.9212 37.0193 16.9238 37.1117M16.9238 37.1117C16.987 39.3491 17.7018 42.9271 21.333 44.7669L21.2426 44.9453C17.4101 43.0036 16.7503 39.179 16.72 36.932C16.7874 36.9925 16.8553 37.0524 16.9238 37.1117ZM11.8915 25.7206C11.5477 26.4321 11.4389 27.2343 11.5808 28.0116L26.967 39.0384C25.019 39.007 23.0968 38.5875 21.3129 37.8044C21.2892 37.7926 21.2649 37.7818 21.2403 37.7721C19.3614 36.9053 17.7104 35.6126 16.4179 33.9967L16.4179 33.9967L16.4164 33.9949C15.2253 32.5404 14.3151 30.8772 13.7321 29.0899C13.7268 29.0721 13.7208 29.0579 13.718 29.0513L13.7164 29.0477C13.715 29.0416 13.7115 29.0266 13.7053 29.0095C13.5542 28.5813 13.4403 28.1409 13.3649 27.6931L13.3649 27.6931L13.3643 27.69C13.2905 27.2904 13.3457 26.8777 13.522 26.5115C13.6982 26.1454 13.9863 25.8448 14.3447 25.6531C14.703 25.4615 15.113 25.3889 15.5154 25.4456C15.9175 25.5024 16.2912 25.6854 16.5824 25.9684C17.4115 26.7884 18.2952 27.5513 19.2276 28.2518C19.621 28.5804 23.1091 31.3492 28.9768 31.3492C29.1762 31.3492 29.379 31.346 29.5832 31.3394C29.7022 31.3355 29.8192 31.3083 29.9276 31.2593C30.036 31.2102 30.1337 31.1403 30.2151 31.0535L30.0693 30.9167L30.2151 31.0535C30.2966 30.9667 30.3601 30.8647 30.402 30.7533C30.444 30.642 30.4637 30.5234 30.4599 30.4045C30.456 30.2855 30.4288 30.1685 30.3798 30.0601C30.3307 29.9516 30.2608 29.8539 30.174 29.7725C30.0872 29.6911 29.9852 29.6276 29.8738 29.5856C29.7625 29.5436 29.6439 29.524 29.525 29.5278L29.5249 29.5278C25.5767 29.6563 22.7437 28.3509 21.3505 27.5161C26.3501 24.1187 32.7894 23.663 36.3368 23.7161L36.3368 23.7161C36.5771 23.7197 36.8089 23.6277 36.9813 23.4603C37.1537 23.2929 37.2526 23.064 37.2562 22.8237C37.2598 22.5835 37.1677 22.3516 37.0004 22.1792C36.833 22.0068 36.604 21.9079 36.3638 21.9044L36.3638 21.9044C32.498 21.8475 25.2929 22.3626 19.79 26.3969C19.1151 25.8544 18.4673 25.2791 17.8487 24.6731L17.8483 24.6727C17.2821 24.1211 16.5552 23.7637 15.7725 23.6523C14.9899 23.5409 14.1921 23.6813 13.4944 24.0531C12.7968 24.4248 12.2354 25.0088 11.8915 25.7206Z" fill="white" stroke="white" stroke-width="0.4"/>
<path d="M45.2082 7.08586L45.2078 7.08514C45.175 7.03605 45.147 6.98393 45.1243 6.92948L45.1233 6.92723L45.1234 6.92722C45.1018 6.87369 45.0848 6.81841 45.0727 6.76197L45.0716 6.7571L45.0717 6.75709C45.0608 6.69945 45.0555 6.64089 45.0559 6.58224M45.2082 7.08586L46.2316 5.93117M45.2082 7.08586C45.2411 7.13466 45.2785 7.18027 45.3198 7.2221L45.2082 7.08586ZM45.0559 6.58224C45.0556 6.52377 45.0609 6.46542 45.0716 6.40795L45.073 6.40051L45.0732 6.40054C45.0856 6.34573 45.1021 6.29192 45.1225 6.23956L45.1249 6.23352L45.125 6.23356C45.1478 6.18045 45.1751 6.12942 45.2068 6.08106L45.2095 6.07681L45.2096 6.07685C45.2422 6.02966 45.2787 5.98521 45.3185 5.94395L45.3211 5.94132L45.3211 5.94134C45.3631 5.89948 45.4093 5.86213 45.4591 5.82992C45.5081 5.79644 45.5606 5.76837 45.6157 5.7462C45.6703 5.72323 45.7272 5.70587 45.7854 5.69438L45.786 5.69425C45.902 5.67171 46.0213 5.67171 46.1374 5.69426L46.1402 5.6948L46.1402 5.69482C46.1974 5.70679 46.2534 5.72395 46.3074 5.74611M45.0559 6.58224C45.0559 6.58177 45.0559 6.58131 45.0559 6.58085L45.2559 6.58235L45.0559 6.58351C45.0559 6.58309 45.0559 6.58266 45.0559 6.58224ZM46.3074 5.74611L46.2316 5.93117M46.3074 5.74611C46.3074 5.74609 46.3073 5.74608 46.3073 5.74606L46.2316 5.93117M46.3074 5.74611C46.3623 5.76859 46.4148 5.79662 46.464 5.82977M46.2316 5.93117C46.2744 5.94868 46.3152 5.97056 46.3535 5.99647M46.464 5.82977C46.4635 5.82942 46.463 5.82908 46.4625 5.82873L46.3535 5.99647M46.464 5.82977C46.5134 5.86199 46.5592 5.89937 46.6006 5.94128M46.464 5.82977C46.4646 5.83012 46.4651 5.83048 46.4656 5.83083L46.3535 5.99647M46.3535 5.99647L46.6006 5.94128M46.6006 5.94128C46.6002 5.94085 46.5997 5.94042 46.5993 5.93999L46.4594 6.08294L46.602 5.94269C46.6015 5.94222 46.6011 5.94175 46.6006 5.94128ZM46.6006 5.94128C46.6433 5.98329 46.6814 6.02978 46.7143 6.07995M46.6006 5.94128L46.6535 6.72L46.8496 6.75958C46.8613 6.70158 46.8673 6.64257 46.8677 6.58339L46.8676 6.58093C46.8672 6.52201 46.8612 6.46326 46.8497 6.4055L46.8492 6.4034C46.8372 6.34648 46.8201 6.29074 46.7981 6.23685L46.7979 6.23635C46.7754 6.18151 46.7474 6.12911 46.7143 6.07995M46.7143 6.07995C46.7139 6.07948 46.7136 6.07901 46.7133 6.07854L46.5476 6.19059L46.7153 6.08149C46.7149 6.08097 46.7146 6.08046 46.7143 6.07995ZM45.6144 7.41974L45.6144 7.41973C45.5603 7.39704 45.5085 7.3693 45.4596 7.33687C45.4594 7.33679 45.4593 7.3367 45.4592 7.33662L45.5698 7.17C45.531 7.14447 45.495 7.11489 45.4623 7.08176L45.6144 7.41974ZM45.6144 7.41974L45.6161 7.42042M45.6144 7.41974L45.6161 7.42042M45.6161 7.42042C45.6703 7.4426 45.7267 7.45926 45.7843 7.47014C45.8427 7.48281 45.9022 7.48889 45.962 7.48825C46.0216 7.48877 46.0811 7.48267 46.1394 7.47006C46.1965 7.45904 46.2524 7.44254 46.3064 7.42079L46.3064 7.42083M45.6161 7.42042L46.3064 7.42083M46.3064 7.42083L46.3104 7.4191M46.3064 7.42083L46.3104 7.4191M46.3104 7.4191C46.3635 7.39634 46.4144 7.36905 46.4628 7.33752L46.4642 7.33656M46.3104 7.4191L46.4642 7.33656M46.4642 7.33656C46.5135 7.3038 46.5592 7.26592 46.6005 7.22357M46.4642 7.33656L46.6005 7.22357M46.6005 7.22357C46.6438 7.18179 46.682 7.13511 46.7145 7.08447L46.6005 7.22357ZM31.2861 38.7326L31.2953 38.687L31.0084 38.7354C30.8631 38.7599 30.719 38.7832 30.5761 38.8054C30.3502 38.8393 30.1453 38.9573 30.0027 39.1358C29.86 39.3144 29.7901 39.5403 29.807 39.7683C29.8239 39.9963 29.9264 40.2094 30.0938 40.365C30.2613 40.5206 30.4814 40.6071 30.71 40.6072H30.7103C30.7556 40.6071 30.8008 40.6037 30.8456 40.597L30.8458 40.597C30.9992 40.5739 31.1539 40.5492 31.3098 40.5229C31.4272 40.5031 31.5394 40.4603 31.6402 40.3971L31.534 40.2277L31.6402 40.3971C31.741 40.3339 31.8284 40.2515 31.8974 40.1546C31.9663 40.0576 32.0155 39.948 32.0421 39.8321C32.0687 39.7161 32.0722 39.596 32.0523 39.4787C32.0325 39.3614 31.9898 39.2492 31.9266 39.1484C31.8634 39.0476 31.781 38.9602 31.6841 38.8913C31.5871 38.8223 31.4775 38.7731 31.3616 38.7465C31.3366 38.7408 31.3114 38.7362 31.2861 38.7326ZM30.7101 40.4072C30.7456 40.4071 30.7809 40.4045 30.816 40.3992L30.7101 40.4072ZM46.798 6.9283C46.7982 6.92776 46.7984 6.92722 46.7986 6.92667L46.6129 6.85235L46.7973 6.92992C46.7975 6.92938 46.7977 6.92884 46.798 6.9283Z" fill="white" stroke="white" stroke-width="0.4"/>
</svg>
