<svg width="61" height="44" viewBox="0 0 61 44" fill="none" xmlns="http://www.w3.org/2000/svg">
<path d="M54.1029 4.42035H53.2606C52.9705 2.68762 51.4603 1.36282 49.6465 1.36282C49.0046 1.36282 48.3877 1.52688 47.8438 1.8352C46.9803 1.06434 45.8498 0.622545 44.6765 0.622545C43.9772 0.621958 43.2865 0.776083 42.6538 1.07387C42.0212 1.37165 41.4622 1.80572 41.0171 2.34496C40.2362 2.01628 39.3813 1.9034 38.5418 2.01813C37.6725 1.24433 36.5493 0.816575 35.3854 0.816021C34.262 0.816021 33.1989 1.20567 32.3554 1.90774C31.0871 0.940708 29.545 0.416763 27.9253 0.416763C26.6344 0.416763 25.3904 0.749458 24.2855 1.38485C23.4651 0.762935 22.4541 0.416763 21.4147 0.416763C19.6883 0.416763 18.1446 1.33129 17.3095 2.77363C16.4928 2.47115 15.6288 2.31612 14.7579 2.31578C12.4724 2.31578 10.3103 3.40281 8.93471 5.19941C8.48897 5.07236 8.02126 5.04188 7.5628 5.11C7.05114 4.65926 6.39265 4.41064 5.71077 4.41074C5.04571 4.40975 4.40212 4.64611 3.89577 5.0773C2.14922 5.14703 0.75 6.58995 0.75 8.35339C0.75 10.0371 2.02547 11.4285 3.66093 11.6124C3.65636 11.6478 3.65226 11.6834 3.64851 11.719C2.16105 13.1039 1.31613 15.0341 1.31613 17.0788C1.31613 18.743 1.87558 20.3373 2.90261 21.6295C2.65909 22.3691 2.53557 23.1429 2.53675 23.9215C2.53675 27.5313 5.16491 30.589 8.69741 31.1528C8.9715 31.3826 9.25359 31.6027 9.54315 31.8126V32.8216C9.54315 34.8202 10.6741 36.559 12.329 37.434V42.6335C12.329 42.7582 12.3536 42.8818 12.4013 42.9971C12.4491 43.1123 12.519 43.2171 12.6073 43.3053C12.6955 43.3935 12.8002 43.4635 12.9155 43.5112C13.0308 43.559 13.1543 43.5835 13.2791 43.5835H16.2368C16.3615 43.5835 16.4851 43.559 16.6003 43.5112C16.7156 43.4635 16.8203 43.3935 16.9085 43.3053C16.9967 43.2171 17.0667 43.1123 17.1144 42.997C17.1622 42.8818 17.1867 42.7582 17.1867 42.6335V37.4352C17.2726 37.3898 17.3572 37.342 17.4404 37.2917C17.5232 37.3415 17.6076 37.3886 17.6931 37.4336V42.6335C17.693 42.7582 17.7176 42.8818 17.7653 42.9971C17.8131 43.1123 17.8831 43.2171 17.9713 43.3053C18.0595 43.3935 18.1642 43.4635 18.2795 43.5112C18.3948 43.559 18.5183 43.5835 18.6431 43.5835H21.6024C21.7272 43.5835 21.8507 43.559 21.966 43.5112C22.0813 43.4635 22.186 43.3935 22.2742 43.3053C22.3625 43.2171 22.4324 43.1123 22.4802 42.9971C22.5279 42.8818 22.5525 42.7582 22.5525 42.6335V37.4376C23.2717 37.0599 23.8924 36.5189 24.3649 35.8581C25.3778 36.3196 26.4781 36.5581 27.5913 36.5575C28.9524 36.5575 30.2552 36.2141 31.4161 35.5556C31.9059 36.352 32.6014 37.0016 33.4294 37.4359V42.6335C33.4294 42.7582 33.454 42.8818 33.5017 42.9971C33.5494 43.1123 33.6194 43.2171 33.7077 43.3053C33.7959 43.3935 33.9006 43.4635 34.0159 43.5112C34.1311 43.559 34.2547 43.5835 34.3795 43.5835H37.3373C37.462 43.5835 37.5856 43.559 37.7009 43.5112C37.8161 43.4635 37.9209 43.3935 38.0091 43.3053C38.0973 43.2171 38.1673 43.1123 38.215 42.9971C38.2628 42.8818 38.2873 42.7582 38.2873 42.6335V37.4418C38.3755 37.3957 38.4624 37.347 38.5478 37.2958C38.6288 37.3441 38.7111 37.3902 38.7946 37.4341V42.6335C38.7946 42.7582 38.8192 42.8818 38.8669 42.9971C38.9146 43.1123 38.9846 43.2171 39.0728 43.3053C39.1611 43.3935 39.2658 43.4635 39.3811 43.5112C39.4963 43.559 39.6199 43.5835 39.7446 43.5835H42.703C42.8278 43.5835 42.9514 43.559 43.0666 43.5112C43.1819 43.4635 43.2866 43.3935 43.3749 43.3053C43.4631 43.2171 43.5331 43.1123 43.5808 42.9971C43.6285 42.8818 43.6531 42.7582 43.6531 42.6335V37.434C45.3079 36.559 46.4389 34.8202 46.4389 32.8216V32.6137C48.7739 31.3877 50.3711 28.94 50.3711 26.1247C50.3711 25.8944 50.3597 25.6614 50.3369 25.4273C51.3175 24.5331 51.8885 23.2598 51.8885 21.918C51.8885 20.745 51.4478 19.6083 50.6672 18.7405C50.6507 18.3976 50.6228 18.0554 50.5835 17.7143H54.1031C57.7683 17.7143 60.7502 14.7325 60.7502 11.0673C60.7499 7.4023 57.768 4.42035 54.1029 4.42035ZM15.2868 41.6834H14.2291V38.0094C14.403 38.0271 14.5795 38.0361 14.758 38.0361C14.9365 38.0361 15.1124 38.0238 15.287 38.0063V41.6834H15.2868ZM20.6526 41.6834H19.5931V38.0079C19.7689 38.0259 19.9459 38.0362 20.1237 38.0362C20.3019 38.0362 20.4782 38.0265 20.6527 38.0089V41.6834H20.6526ZM20.1235 36.1361C19.7152 36.1361 19.3214 36.0621 18.9518 35.9223C19.1658 35.6334 19.3492 35.3231 19.499 34.9963C19.7209 35.0281 19.9449 35.0442 20.17 35.0442C20.7669 35.0442 21.3477 34.9346 21.8994 34.7182H22.5643C22.621 34.7662 22.6795 34.8119 22.7374 34.8581C22.428 35.2564 22.0316 35.5786 21.5786 35.8001C21.1255 36.0216 20.6278 36.1366 20.1235 36.1361ZM36.3871 41.6834H35.3293V38.0069C35.5038 38.0245 35.68 38.0363 35.8584 38.0363C36.035 38.0361 36.2115 38.0271 36.3872 38.0093V41.6834H36.3871ZM41.7529 41.6834H40.6943V38.0079C40.8699 38.0259 41.0466 38.0362 41.224 38.0362C41.4025 38.0362 41.579 38.0272 41.7529 38.0095V41.6834ZM41.2239 36.1361C40.8173 36.1361 40.4247 36.0628 40.0562 35.924C40.5478 35.2582 40.8729 34.4843 41.0042 33.6671C41.2652 33.5647 41.5233 33.4552 41.7783 33.3386C42.1991 33.4125 42.6242 33.4499 43.0457 33.4499C43.5444 33.4499 44.0318 33.3995 44.5029 33.304C44.2688 34.9039 42.888 36.1361 41.2239 36.1361ZM48.7771 24.248C48.6299 24.3516 48.5152 24.495 48.4463 24.6613C48.3775 24.8277 48.3573 25.0102 48.3883 25.1876C48.4431 25.5027 48.4709 25.8182 48.4709 26.1248C48.4709 29.1163 46.0371 31.5499 43.0459 31.5499C42.6478 31.5493 42.2509 31.5053 41.8623 31.4187C41.6534 31.3723 41.4349 31.3978 41.2423 31.4911C40.7761 31.7165 40.2971 31.9144 39.8078 32.0838C39.6269 32.1465 39.4691 32.2624 39.3552 32.4164C39.2414 32.5703 39.1766 32.7551 39.1696 32.9464C39.1405 33.8042 38.7785 34.6169 38.1603 35.2123C37.5422 35.8078 36.7165 36.1391 35.8582 36.1361C35.1599 36.1373 34.4791 35.9174 33.9134 35.5078C33.3477 35.0983 32.9262 34.5203 32.7092 33.8565C32.6616 33.7115 32.5798 33.5801 32.4707 33.4734C32.3616 33.3667 32.2284 33.2879 32.0823 33.2436C31.9363 33.1993 31.7818 33.1909 31.6318 33.219C31.4818 33.2471 31.3408 33.3109 31.2207 33.4051C30.175 34.2243 28.9199 34.6574 27.5913 34.6574C26.0953 34.6574 24.6683 34.095 23.5732 33.0736C23.3973 32.9095 23.1657 32.8183 22.9252 32.8182H21.7098C21.577 32.8182 21.4457 32.8461 21.3243 32.8999C20.6563 33.1955 19.9001 33.2232 19.2123 32.9771C19.0876 32.9324 18.955 32.9143 18.8229 32.9238C18.6908 32.9334 18.5622 32.9705 18.4453 33.0328C18.3284 33.0951 18.2258 33.1811 18.1441 33.2853C18.0624 33.3896 18.0035 33.5098 17.971 33.6382C17.5986 35.1088 16.2773 36.136 14.7579 36.136C12.9301 36.136 11.4432 34.6492 11.4432 32.8214V31.3187C11.4432 31.1634 11.4052 31.0105 11.3324 30.8734C11.2596 30.7362 11.1543 30.619 11.0257 30.532C10.5733 30.226 10.14 29.8928 9.72818 29.5342C9.5841 29.4086 9.40551 29.3294 9.21572 29.3068C6.49136 28.9839 4.43683 26.6687 4.43683 23.9215C4.43683 23.1874 4.58073 22.476 4.86421 21.8066C4.93604 21.6373 4.95712 21.4507 4.92489 21.2696C4.89267 21.0885 4.80852 20.9207 4.68269 20.7865C3.73687 19.777 3.21609 18.4603 3.21609 17.0789C3.21609 15.4599 3.93175 13.9374 5.1798 12.9018C5.28576 12.8139 5.37135 12.704 5.43061 12.5798C5.48988 12.4555 5.52142 12.3199 5.52304 12.1822C5.52749 11.7374 5.6372 11.3 5.84319 10.9057C5.9346 10.7298 5.9687 10.5297 5.94071 10.3335C5.91273 10.1373 5.82406 9.95469 5.68712 9.81136C5.55018 9.66803 5.37184 9.57112 5.17708 9.53421C4.98232 9.4973 4.78089 9.52224 4.60101 9.60553C4.42208 9.68934 4.22695 9.73287 4.02937 9.73303C3.26871 9.73303 2.64984 9.11417 2.64984 8.35339C2.64984 7.59272 3.26871 6.97386 4.02937 6.97386C4.07577 6.97386 4.12476 6.97655 4.17491 6.98206C4.33174 6.99888 4.49028 6.97652 4.63633 6.91698C4.78239 6.85745 4.91138 6.76259 5.01175 6.64093C5.09643 6.53742 5.20307 6.45404 5.32395 6.39682C5.44483 6.3396 5.57692 6.30998 5.71065 6.31011C5.8578 6.31031 6.00268 6.34636 6.13276 6.41513C6.26285 6.4839 6.37422 6.58332 6.45725 6.7048C6.57661 6.87899 6.7506 7.00846 6.95173 7.07276C7.15286 7.13706 7.36968 7.13252 7.56796 7.05988C7.76485 6.98689 7.97594 6.96036 8.18477 6.98233C8.3936 7.0043 8.59454 7.07419 8.77194 7.18655C8.87921 7.25408 8.9989 7.2995 9.12397 7.32012C9.24904 7.34075 9.37698 7.33618 9.50026 7.30667C9.62353 7.27704 9.73962 7.22305 9.84172 7.14788C9.94381 7.07271 10.0298 6.97789 10.0947 6.86898C11.0693 5.23222 12.8561 4.21551 14.7579 4.21551C15.6586 4.21551 16.5502 4.44051 17.3366 4.86625C17.4599 4.93302 17.5965 4.97167 17.7365 4.97941C17.8765 4.98716 18.0165 4.96381 18.1465 4.91105C18.2764 4.85829 18.393 4.77742 18.488 4.67424C18.583 4.57106 18.654 4.44814 18.6958 4.31429C19.0689 3.11934 20.1616 2.31672 21.4147 2.31672C22.2123 2.31672 22.9519 2.63887 23.4972 3.22352C23.6552 3.39285 23.8696 3.49865 24.1001 3.52105C24.3306 3.54345 24.5614 3.4809 24.749 3.34516C25.6784 2.67227 26.7768 2.31672 27.9253 2.31672C29.3621 2.31672 30.7164 2.87348 31.7388 3.88433C31.8338 3.97824 31.9475 4.05105 32.0725 4.09803C32.1976 4.14501 32.3311 4.16509 32.4644 4.15698C32.5978 4.14886 32.7279 4.11272 32.8463 4.05092C32.9647 3.98912 33.0688 3.90305 33.1517 3.79832C33.6963 3.11043 34.5104 2.71586 35.3855 2.71586C35.7885 2.71612 36.1868 2.80184 36.5543 2.96736C36.9217 3.13288 37.2498 3.37444 37.517 3.67609C37.6331 3.80701 37.7832 3.90334 37.9505 3.95445C38.1179 4.00557 38.2961 4.00949 38.4655 3.96578C38.7 3.90535 38.9411 3.87475 39.1832 3.87473C39.5066 3.87473 39.8228 3.93051 40.1221 4.03504C39.9947 4.46877 39.9295 4.91843 39.9287 5.3705C39.9287 5.49526 39.9533 5.61881 40.001 5.73408C40.0487 5.84935 40.1187 5.95408 40.2069 6.04231C40.2951 6.13053 40.3998 6.20051 40.5151 6.24825C40.6304 6.29599 40.7539 6.32056 40.8787 6.32054C41.0034 6.32056 41.127 6.29599 41.2423 6.24825C41.3575 6.20052 41.4623 6.13054 41.5505 6.04232C41.6387 5.95409 41.7087 5.84936 41.7564 5.73409C41.8042 5.61881 41.8287 5.49527 41.8287 5.3705C41.8287 4.89648 41.9409 4.44625 42.1619 4.03234C42.4045 3.57613 42.7668 3.19459 43.2099 2.92865C43.6529 2.6627 44.16 2.52238 44.6767 2.52274C45.5869 2.52274 46.4208 2.94262 46.9648 3.67492C47.0461 3.78447 47.1501 3.87519 47.2697 3.94092C47.3893 4.00664 47.5216 4.04582 47.6577 4.05578C47.7938 4.06587 47.9305 4.04649 48.0584 3.99894C48.1863 3.95139 48.3025 3.87681 48.3989 3.78027C48.5625 3.61587 48.757 3.48551 48.9712 3.39675C49.1854 3.30798 49.4151 3.26256 49.647 3.26312C50.6199 3.26312 51.4113 4.05449 51.4113 5.02738C51.4113 5.09289 51.4078 5.15746 51.4008 5.22109C51.3978 5.24031 51.3952 5.25976 51.3933 5.27921C51.2707 6.13328 50.5343 6.79175 49.6469 6.79175C49.2621 6.79175 48.8949 6.66765 48.5848 6.43269C48.476 6.35005 48.3506 6.29192 48.2172 6.26228C48.0838 6.23265 47.9456 6.23222 47.812 6.26101C47.6785 6.28957 47.5526 6.34663 47.4431 6.4283C47.3336 6.50996 47.243 6.61431 47.1775 6.73421C47.0061 7.04782 46.7772 7.32638 46.5028 7.55534C46.325 7.70422 46.2077 7.91302 46.1732 8.14238C46.1386 8.37173 46.1892 8.6058 46.3153 8.80046C46.8841 9.67728 47.1864 10.7002 47.1856 11.7454C47.1867 12.6005 46.9843 13.4436 46.5953 14.2051C46.4956 14.4008 46.4667 14.6249 46.5135 14.8395C46.5604 15.054 46.6802 15.2457 46.8524 15.3819C47.2796 15.7197 47.5246 16.2237 47.5246 16.7647C47.5246 17.0167 47.6247 17.2584 47.8029 17.4365C47.981 17.6147 48.2227 17.7148 48.4746 17.7148H48.6678C48.7306 18.1943 48.7703 18.6785 48.7812 19.163C48.784 19.2897 48.8121 19.4145 48.864 19.5301C48.9158 19.6458 48.9902 19.7499 49.0828 19.8363C49.6671 20.3816 49.9888 21.1211 49.9888 21.9185C49.9883 22.8427 49.5355 23.7137 48.7771 24.248ZM54.1029 15.8146H49.3C49.1634 15.304 48.917 14.8293 48.578 14.4238C48.7728 13.9293 48.9129 13.415 48.9958 12.8899C49.0553 12.5113 49.0852 12.1286 49.0852 11.7454C49.086 10.5975 48.8161 9.46551 48.2973 8.44151L48.3021 8.43589C48.7299 8.60559 49.1861 8.69236 49.6464 8.69159C51.2118 8.69159 52.5513 7.70464 53.0751 6.32042H54.1028C56.7203 6.32042 58.8499 8.45007 58.8499 11.0677C58.8499 13.6851 56.7205 15.8146 54.1029 15.8146Z" fill="white"/>
<path d="M51.4808 8.92923C51.0882 8.92923 50.7699 9.24751 50.7699 9.64032C50.7699 10.0331 51.0883 10.3513 51.4808 10.3513C51.5741 10.3513 51.6666 10.333 51.7529 10.2973C51.8392 10.2616 51.9176 10.2092 51.9837 10.1432C52.0497 10.0772 52.1021 9.99876 52.1379 9.91248C52.1736 9.82619 52.192 9.73372 52.192 9.64032C52.192 9.54693 52.1736 9.45444 52.1379 9.36816C52.1021 9.28187 52.0497 9.20346 51.9837 9.13743C51.9176 9.07139 51.8392 9.01902 51.7529 8.98329C51.6666 8.94757 51.5741 8.9292 51.4808 8.92923ZM44.2021 9.57025C44.0774 9.57023 43.9538 9.59479 43.8386 9.64253C43.7233 9.69027 43.6186 9.76025 43.5303 9.84848C43.4421 9.9367 43.3722 10.0414 43.3244 10.1567C43.2767 10.272 43.2522 10.3955 43.2522 10.5203V13.577C43.2522 14.1018 43.6774 14.527 44.2021 14.527C44.7269 14.527 45.1522 14.1019 45.1522 13.577V10.5203C45.1521 10.2683 45.052 10.0267 44.8739 9.84854C44.6957 9.67038 44.4541 9.57028 44.2021 9.57025Z" fill="white"/>
</svg>
