<svg width="61" height="60" viewBox="0 0 61 60" fill="none" xmlns="http://www.w3.org/2000/svg">
<g clip-path="url(#clip0_19001_988)">
<mask id="path-1-outside-1_19001_988" maskUnits="userSpaceOnUse" x="-0.750244" y="-0.93277" width="62" height="62" fill="black">
<rect fill="white" x="-0.750244" y="-0.93277" width="62" height="62"/>
<path d="M57.4342 34.1382C61.6037 32.2521 61.0019 25.9202 56.5593 24.8361C59.7365 20.8164 56.9306 14.2411 51.5285 14.7893C52.6837 12.3556 52.043 9.14865 49.8142 7.54387C47.4803 5.86354 44.1054 6.66406 42.8085 9.24648L37.1247 20.5643C32.4313 19.3473 27.3074 19.3017 22.8131 21.2857C19.8789 20.4052 21.4105 15.5574 21.6437 13.5325C21.7696 12.4386 20.0271 12.188 19.8956 13.3313C19.5831 16.0467 18.303 20.2289 20.9258 22.2634C16.9252 24.6714 14.3462 29.0987 16.0791 33.7811C17.4715 37.5432 21.1614 39.9349 25.9495 40.1785C29.05 40.3365 32.14 39.6452 34.9628 38.3799C35.9674 37.9296 35.2936 36.3039 34.2429 36.7742C31.4986 38.0044 28.7381 38.5581 26.0388 38.4211C22.5667 38.2443 19.0069 36.6217 17.7293 33.1701C15.922 28.2867 19.7836 24.41 23.9481 22.7148C26.6425 21.6181 31.1543 20.6815 37.3471 22.4476C40.3901 23.3153 43.2559 25.5883 44.9516 28.2449C44.1252 29.275 41.8934 31.8712 38.6891 34.1811C37.8017 34.8207 38.7728 36.29 39.718 35.6085C42.6275 33.511 44.7516 31.2247 45.8598 29.9124C47.2462 32.9366 47.5332 36.438 46.6249 39.814C45.2477 44.9329 40.4587 48.6488 35.0368 48.3027C34.8696 48.2931 34.7031 48.3315 34.557 48.4133C34.4108 48.495 34.291 48.6168 34.2116 48.7643L31.7956 53.2559H29.7022C27.8185 49.8221 23.5982 48.0078 20.0429 46.9063C14.4317 44.3663 10.7615 41.1167 9.116 37.2197C6.70919 31.5201 9.21912 25.9392 10.2908 23.556C10.6378 22.7845 10.983 22.0382 11.3914 21.2954C12.6068 19.0851 14.2714 16.058 13.3396 14.0006C12.9489 13.138 12.1813 12.5748 11.0582 12.3265C9.41502 11.9634 7.79839 10.8951 7.30957 9.21282C6.77042 7.35747 7.78467 6.00021 8.70824 4.52681C10.1569 2.84179 12.4465 1.62132 14.8903 1.85441C17.3308 2.08703 19.8598 3.06761 20.1151 8.57642C20.1659 9.67372 21.9261 9.64592 21.8728 8.49512C21.7471 5.78014 21.1187 3.7866 19.9519 2.40048C18.8242 1.06093 17.2231 0.309339 15.0572 0.102876C12.1057 -0.179368 9.18568 1.23936 7.30394 3.47585C6.85195 3.93828 2.33569 8.59824 0.371712 11.8886C0.00195518 12.508 0.525268 13.3037 1.23991 13.2121L7.31684 12.4272C8.63387 14.3744 6.64337 16.6884 5.27743 17.9339C3.57142 19.4893 2.9986 21.8356 3.818 23.9112C4.42918 25.4595 5.70209 26.4707 7.21525 26.6556C6.31034 29.6728 5.74702 33.7649 7.49492 37.9041C9.29114 42.1578 13.1742 45.6758 19.0593 48.3915L20.8844 54.4176C21.0618 55.0035 21.6971 55.1003 22.2127 55.0439L21.7276 58.1725H17.4786C16.3775 58.1725 16.3274 59.9321 17.4786 59.9321H31.7274C32.8285 59.9321 32.8786 58.1725 31.7274 58.1725H31.0276L31.5591 55.0154C32.0653 55.0696 32.8181 55.0692 33.0961 54.5524L35.5097 50.0651C36.4347 50.0476 38.3624 49.9014 40.486 49.1023C41.8157 50.7471 43.1111 53.0121 45.499 53.0121C47.739 53.0121 49.5973 51.0376 49.4524 48.8034C53.0779 49.5032 56.0896 45.5906 54.5618 42.2519C58.5686 41.9854 60.3777 36.875 57.4342 34.1382ZM5.38993 8.17112C5.38653 9.0995 5.61493 9.99292 6.07079 10.8142L2.93924 11.2187C3.67348 10.2155 4.54625 9.15029 5.38993 8.17112ZM7.75124 24.9298C6.72842 24.9448 5.87137 24.3206 5.45492 23.2654C5.03824 22.2099 5.05232 20.5209 6.46331 19.2345C8.49321 17.3837 9.51427 15.5469 9.49796 13.7754C9.49737 13.7183 11.4885 14.1786 11.7368 14.7269C12.3053 15.9821 10.7079 18.8871 9.84965 20.4478C9.62465 20.8569 7.96837 24.9252 7.75124 24.9298ZM21.1724 49.2981C21.6352 49.4826 22.1008 49.6601 22.5689 49.8305C23.5373 50.1829 24.3498 50.5871 25.0319 51.0061L24.1416 53.2908L22.3801 53.2853L21.1724 49.2981ZM29.2434 58.1729H23.5083L23.9926 55.0499L24.7394 55.0523H24.7421C24.9192 55.0523 25.0923 54.9988 25.2385 54.8988C25.3848 54.7989 25.4975 54.6571 25.5618 54.492L26.4998 52.0852C27.8676 53.2927 28.2972 54.3683 28.3236 54.4372C28.3854 54.6068 28.4979 54.7533 28.6458 54.8569C28.7936 54.9604 28.9698 55.0159 29.1503 55.0159H29.775L29.2434 58.1729ZM58.5471 29.51C58.5978 31.2261 57.2955 32.7214 55.5568 32.8147L48.6834 33.1832C48.4716 31.9094 48.1054 30.6662 47.5931 29.481L50.4922 28.2543L54.0232 26.7604C56.0535 25.8582 58.4929 27.2147 58.5471 29.51ZM44.381 10.0363C46.5252 6.02954 52.7008 11.1569 49.2861 15.0232L42.2608 22.9777C41.2121 22.2195 40.0512 21.5578 38.83 21.0899L44.381 10.0363ZM43.6351 24.0796L49.1211 17.868C53.5804 12.8193 59.8475 22.3802 53.3411 25.1385L46.8017 27.9052L46.7743 27.8576C46.7728 27.8551 46.7714 27.8525 46.7699 27.8502C46.5956 27.5491 46.4111 27.2541 46.2168 26.9655C45.5858 26.0311 44.6988 25.0217 43.6351 24.0796ZM47.6768 49.3849C47.4028 51.1859 45.0056 51.8939 43.8376 50.4494L42.1404 48.3502C43.2511 47.7492 44.4023 46.9164 45.4362 45.762L47.1372 47.6149C47.3545 47.8504 47.5158 48.1318 47.6092 48.4382C47.7026 48.7447 47.7258 49.0683 47.6768 49.3849ZM52.5313 46.0384C51.3793 47.3825 49.4018 47.4799 48.1902 46.1598L46.5252 44.3461C47.257 43.2365 47.8792 41.9068 48.3129 40.3107L51.373 41.4877C53.1751 42.1812 53.8149 44.5643 52.5313 46.0384ZM56.9853 38.573C56.4087 40.0728 54.7305 40.8938 53.2038 40.3065L52.0047 39.8452L52.0041 39.845L48.6898 38.5702C48.8853 37.3689 48.949 36.1498 48.8796 34.9347L54.0998 34.6549C56.1473 34.5431 57.7109 36.6501 56.9853 38.573Z"/>
</mask>
<path d="M57.4342 34.1382C61.6037 32.2521 61.0019 25.9202 56.5593 24.8361C59.7365 20.8164 56.9306 14.2411 51.5285 14.7893C52.6837 12.3556 52.043 9.14865 49.8142 7.54387C47.4803 5.86354 44.1054 6.66406 42.8085 9.24648L37.1247 20.5643C32.4313 19.3473 27.3074 19.3017 22.8131 21.2857C19.8789 20.4052 21.4105 15.5574 21.6437 13.5325C21.7696 12.4386 20.0271 12.188 19.8956 13.3313C19.5831 16.0467 18.303 20.2289 20.9258 22.2634C16.9252 24.6714 14.3462 29.0987 16.0791 33.7811C17.4715 37.5432 21.1614 39.9349 25.9495 40.1785C29.05 40.3365 32.14 39.6452 34.9628 38.3799C35.9674 37.9296 35.2936 36.3039 34.2429 36.7742C31.4986 38.0044 28.7381 38.5581 26.0388 38.4211C22.5667 38.2443 19.0069 36.6217 17.7293 33.1701C15.922 28.2867 19.7836 24.41 23.9481 22.7148C26.6425 21.6181 31.1543 20.6815 37.3471 22.4476C40.3901 23.3153 43.2559 25.5883 44.9516 28.2449C44.1252 29.275 41.8934 31.8712 38.6891 34.1811C37.8017 34.8207 38.7728 36.29 39.718 35.6085C42.6275 33.511 44.7516 31.2247 45.8598 29.9124C47.2462 32.9366 47.5332 36.438 46.6249 39.814C45.2477 44.9329 40.4587 48.6488 35.0368 48.3027C34.8696 48.2931 34.7031 48.3315 34.557 48.4133C34.4108 48.495 34.291 48.6168 34.2116 48.7643L31.7956 53.2559H29.7022C27.8185 49.8221 23.5982 48.0078 20.0429 46.9063C14.4317 44.3663 10.7615 41.1167 9.116 37.2197C6.70919 31.5201 9.21912 25.9392 10.2908 23.556C10.6378 22.7845 10.983 22.0382 11.3914 21.2954C12.6068 19.0851 14.2714 16.058 13.3396 14.0006C12.9489 13.138 12.1813 12.5748 11.0582 12.3265C9.41502 11.9634 7.79839 10.8951 7.30957 9.21282C6.77042 7.35747 7.78467 6.00021 8.70824 4.52681C10.1569 2.84179 12.4465 1.62132 14.8903 1.85441C17.3308 2.08703 19.8598 3.06761 20.1151 8.57642C20.1659 9.67372 21.9261 9.64592 21.8728 8.49512C21.7471 5.78014 21.1187 3.7866 19.9519 2.40048C18.8242 1.06093 17.2231 0.309339 15.0572 0.102876C12.1057 -0.179368 9.18568 1.23936 7.30394 3.47585C6.85195 3.93828 2.33569 8.59824 0.371712 11.8886C0.00195518 12.508 0.525268 13.3037 1.23991 13.2121L7.31684 12.4272C8.63387 14.3744 6.64337 16.6884 5.27743 17.9339C3.57142 19.4893 2.9986 21.8356 3.818 23.9112C4.42918 25.4595 5.70209 26.4707 7.21525 26.6556C6.31034 29.6728 5.74702 33.7649 7.49492 37.9041C9.29114 42.1578 13.1742 45.6758 19.0593 48.3915L20.8844 54.4176C21.0618 55.0035 21.6971 55.1003 22.2127 55.0439L21.7276 58.1725H17.4786C16.3775 58.1725 16.3274 59.9321 17.4786 59.9321H31.7274C32.8285 59.9321 32.8786 58.1725 31.7274 58.1725H31.0276L31.5591 55.0154C32.0653 55.0696 32.8181 55.0692 33.0961 54.5524L35.5097 50.0651C36.4347 50.0476 38.3624 49.9014 40.486 49.1023C41.8157 50.7471 43.1111 53.0121 45.499 53.0121C47.739 53.0121 49.5973 51.0376 49.4524 48.8034C53.0779 49.5032 56.0896 45.5906 54.5618 42.2519C58.5686 41.9854 60.3777 36.875 57.4342 34.1382ZM5.38993 8.17112C5.38653 9.0995 5.61493 9.99292 6.07079 10.8142L2.93924 11.2187C3.67348 10.2155 4.54625 9.15029 5.38993 8.17112ZM7.75124 24.9298C6.72842 24.9448 5.87137 24.3206 5.45492 23.2654C5.03824 22.2099 5.05232 20.5209 6.46331 19.2345C8.49321 17.3837 9.51427 15.5469 9.49796 13.7754C9.49737 13.7183 11.4885 14.1786 11.7368 14.7269C12.3053 15.9821 10.7079 18.8871 9.84965 20.4478C9.62465 20.8569 7.96837 24.9252 7.75124 24.9298ZM21.1724 49.2981C21.6352 49.4826 22.1008 49.6601 22.5689 49.8305C23.5373 50.1829 24.3498 50.5871 25.0319 51.0061L24.1416 53.2908L22.3801 53.2853L21.1724 49.2981ZM29.2434 58.1729H23.5083L23.9926 55.0499L24.7394 55.0523H24.7421C24.9192 55.0523 25.0923 54.9988 25.2385 54.8988C25.3848 54.7989 25.4975 54.6571 25.5618 54.492L26.4998 52.0852C27.8676 53.2927 28.2972 54.3683 28.3236 54.4372C28.3854 54.6068 28.4979 54.7533 28.6458 54.8569C28.7936 54.9604 28.9698 55.0159 29.1503 55.0159H29.775L29.2434 58.1729ZM58.5471 29.51C58.5978 31.2261 57.2955 32.7214 55.5568 32.8147L48.6834 33.1832C48.4716 31.9094 48.1054 30.6662 47.5931 29.481L50.4922 28.2543L54.0232 26.7604C56.0535 25.8582 58.4929 27.2147 58.5471 29.51ZM44.381 10.0363C46.5252 6.02954 52.7008 11.1569 49.2861 15.0232L42.2608 22.9777C41.2121 22.2195 40.0512 21.5578 38.83 21.0899L44.381 10.0363ZM43.6351 24.0796L49.1211 17.868C53.5804 12.8193 59.8475 22.3802 53.3411 25.1385L46.8017 27.9052L46.7743 27.8576C46.7728 27.8551 46.7714 27.8525 46.7699 27.8502C46.5956 27.5491 46.4111 27.2541 46.2168 26.9655C45.5858 26.0311 44.6988 25.0217 43.6351 24.0796ZM47.6768 49.3849C47.4028 51.1859 45.0056 51.8939 43.8376 50.4494L42.1404 48.3502C43.2511 47.7492 44.4023 46.9164 45.4362 45.762L47.1372 47.6149C47.3545 47.8504 47.5158 48.1318 47.6092 48.4382C47.7026 48.7447 47.7258 49.0683 47.6768 49.3849ZM52.5313 46.0384C51.3793 47.3825 49.4018 47.4799 48.1902 46.1598L46.5252 44.3461C47.257 43.2365 47.8792 41.9068 48.3129 40.3107L51.373 41.4877C53.1751 42.1812 53.8149 44.5643 52.5313 46.0384ZM56.9853 38.573C56.4087 40.0728 54.7305 40.8938 53.2038 40.3065L52.0047 39.8452L52.0041 39.845L48.6898 38.5702C48.8853 37.3689 48.949 36.1498 48.8796 34.9347L54.0998 34.6549C56.1473 34.5431 57.7109 36.6501 56.9853 38.573Z" fill="white"/>
<path d="M57.4342 34.1382C61.6037 32.2521 61.0019 25.9202 56.5593 24.8361C59.7365 20.8164 56.9306 14.2411 51.5285 14.7893C52.6837 12.3556 52.043 9.14865 49.8142 7.54387C47.4803 5.86354 44.1054 6.66406 42.8085 9.24648L37.1247 20.5643C32.4313 19.3473 27.3074 19.3017 22.8131 21.2857C19.8789 20.4052 21.4105 15.5574 21.6437 13.5325C21.7696 12.4386 20.0271 12.188 19.8956 13.3313C19.5831 16.0467 18.303 20.2289 20.9258 22.2634C16.9252 24.6714 14.3462 29.0987 16.0791 33.7811C17.4715 37.5432 21.1614 39.9349 25.9495 40.1785C29.05 40.3365 32.14 39.6452 34.9628 38.3799C35.9674 37.9296 35.2936 36.3039 34.2429 36.7742C31.4986 38.0044 28.7381 38.5581 26.0388 38.4211C22.5667 38.2443 19.0069 36.6217 17.7293 33.1701C15.922 28.2867 19.7836 24.41 23.9481 22.7148C26.6425 21.6181 31.1543 20.6815 37.3471 22.4476C40.3901 23.3153 43.2559 25.5883 44.9516 28.2449C44.1252 29.275 41.8934 31.8712 38.6891 34.1811C37.8017 34.8207 38.7728 36.29 39.718 35.6085C42.6275 33.511 44.7516 31.2247 45.8598 29.9124C47.2462 32.9366 47.5332 36.438 46.6249 39.814C45.2477 44.9329 40.4587 48.6488 35.0368 48.3027C34.8696 48.2931 34.7031 48.3315 34.557 48.4133C34.4108 48.495 34.291 48.6168 34.2116 48.7643L31.7956 53.2559H29.7022C27.8185 49.8221 23.5982 48.0078 20.0429 46.9063C14.4317 44.3663 10.7615 41.1167 9.116 37.2197C6.70919 31.5201 9.21912 25.9392 10.2908 23.556C10.6378 22.7845 10.983 22.0382 11.3914 21.2954C12.6068 19.0851 14.2714 16.058 13.3396 14.0006C12.9489 13.138 12.1813 12.5748 11.0582 12.3265C9.41502 11.9634 7.79839 10.8951 7.30957 9.21282C6.77042 7.35747 7.78467 6.00021 8.70824 4.52681C10.1569 2.84179 12.4465 1.62132 14.8903 1.85441C17.3308 2.08703 19.8598 3.06761 20.1151 8.57642C20.1659 9.67372 21.9261 9.64592 21.8728 8.49512C21.7471 5.78014 21.1187 3.7866 19.9519 2.40048C18.8242 1.06093 17.2231 0.309339 15.0572 0.102876C12.1057 -0.179368 9.18568 1.23936 7.30394 3.47585C6.85195 3.93828 2.33569 8.59824 0.371712 11.8886C0.00195518 12.508 0.525268 13.3037 1.23991 13.2121L7.31684 12.4272C8.63387 14.3744 6.64337 16.6884 5.27743 17.9339C3.57142 19.4893 2.9986 21.8356 3.818 23.9112C4.42918 25.4595 5.70209 26.4707 7.21525 26.6556C6.31034 29.6728 5.74702 33.7649 7.49492 37.9041C9.29114 42.1578 13.1742 45.6758 19.0593 48.3915L20.8844 54.4176C21.0618 55.0035 21.6971 55.1003 22.2127 55.0439L21.7276 58.1725H17.4786C16.3775 58.1725 16.3274 59.9321 17.4786 59.9321H31.7274C32.8285 59.9321 32.8786 58.1725 31.7274 58.1725H31.0276L31.5591 55.0154C32.0653 55.0696 32.8181 55.0692 33.0961 54.5524L35.5097 50.0651C36.4347 50.0476 38.3624 49.9014 40.486 49.1023C41.8157 50.7471 43.1111 53.0121 45.499 53.0121C47.739 53.0121 49.5973 51.0376 49.4524 48.8034C53.0779 49.5032 56.0896 45.5906 54.5618 42.2519C58.5686 41.9854 60.3777 36.875 57.4342 34.1382ZM5.38993 8.17112C5.38653 9.0995 5.61493 9.99292 6.07079 10.8142L2.93924 11.2187C3.67348 10.2155 4.54625 9.15029 5.38993 8.17112ZM7.75124 24.9298C6.72842 24.9448 5.87137 24.3206 5.45492 23.2654C5.03824 22.2099 5.05232 20.5209 6.46331 19.2345C8.49321 17.3837 9.51427 15.5469 9.49796 13.7754C9.49737 13.7183 11.4885 14.1786 11.7368 14.7269C12.3053 15.9821 10.7079 18.8871 9.84965 20.4478C9.62465 20.8569 7.96837 24.9252 7.75124 24.9298ZM21.1724 49.2981C21.6352 49.4826 22.1008 49.6601 22.5689 49.8305C23.5373 50.1829 24.3498 50.5871 25.0319 51.0061L24.1416 53.2908L22.3801 53.2853L21.1724 49.2981ZM29.2434 58.1729H23.5083L23.9926 55.0499L24.7394 55.0523H24.7421C24.9192 55.0523 25.0923 54.9988 25.2385 54.8988C25.3848 54.7989 25.4975 54.6571 25.5618 54.492L26.4998 52.0852C27.8676 53.2927 28.2972 54.3683 28.3236 54.4372C28.3854 54.6068 28.4979 54.7533 28.6458 54.8569C28.7936 54.9604 28.9698 55.0159 29.1503 55.0159H29.775L29.2434 58.1729ZM58.5471 29.51C58.5978 31.2261 57.2955 32.7214 55.5568 32.8147L48.6834 33.1832C48.4716 31.9094 48.1054 30.6662 47.5931 29.481L50.4922 28.2543L54.0232 26.7604C56.0535 25.8582 58.4929 27.2147 58.5471 29.51ZM44.381 10.0363C46.5252 6.02954 52.7008 11.1569 49.2861 15.0232L42.2608 22.9777C41.2121 22.2195 40.0512 21.5578 38.83 21.0899L44.381 10.0363ZM43.6351 24.0796L49.1211 17.868C53.5804 12.8193 59.8475 22.3802 53.3411 25.1385L46.8017 27.9052L46.7743 27.8576C46.7728 27.8551 46.7714 27.8525 46.7699 27.8502C46.5956 27.5491 46.4111 27.2541 46.2168 26.9655C45.5858 26.0311 44.6988 25.0217 43.6351 24.0796ZM47.6768 49.3849C47.4028 51.1859 45.0056 51.8939 43.8376 50.4494L42.1404 48.3502C43.2511 47.7492 44.4023 46.9164 45.4362 45.762L47.1372 47.6149C47.3545 47.8504 47.5158 48.1318 47.6092 48.4382C47.7026 48.7447 47.7258 49.0683 47.6768 49.3849ZM52.5313 46.0384C51.3793 47.3825 49.4018 47.4799 48.1902 46.1598L46.5252 44.3461C47.257 43.2365 47.8792 41.9068 48.3129 40.3107L51.373 41.4877C53.1751 42.1812 53.8149 44.5643 52.5313 46.0384ZM56.9853 38.573C56.4087 40.0728 54.7305 40.8938 53.2038 40.3065L52.0047 39.8452L52.0041 39.845L48.6898 38.5702C48.8853 37.3689 48.949 36.1498 48.8796 34.9347L54.0998 34.6549C56.1473 34.5431 57.7109 36.6501 56.9853 38.573Z" stroke="white" stroke-width="0.4" mask="url(#path-1-outside-1_19001_988)"/>
<path d="M15.1507 5.86586L15.1507 5.86586C15.2879 6.00281 15.3814 6.17739 15.4194 6.3675C15.4573 6.5576 15.438 6.75469 15.3639 6.93383C15.2898 7.11296 15.1642 7.26609 15.0031 7.37384C14.842 7.48156 14.6525 7.53908 14.4587 7.53912C14.4587 7.53912 14.4586 7.53912 14.4586 7.53912L14.4586 7.43912C14.3432 7.43928 14.2288 7.41666 14.1222 7.37255C14.0155 7.32845 13.9187 7.26372 13.8371 7.1821L15.1507 5.86586ZM15.1507 5.86586C14.0489 4.76608 12.2563 4.7657 11.1543 5.86596C11.0632 5.95685 10.991 6.0648 10.9416 6.18363M15.1507 5.86586L10.9416 6.18363M11.1531 7.25159C11.1531 7.25158 11.1531 7.25156 11.1531 7.25155L11.2239 7.18093L11.1531 7.25159ZM11.1531 7.25159C11.0622 7.16054 10.9901 7.05248 10.941 6.93356M11.1531 7.25159L10.941 6.93356M10.9416 6.18363C10.8922 6.30247 10.8668 6.42986 10.8667 6.55853M10.9416 6.18363L10.8667 6.55853M10.8667 6.55853C10.8666 6.68721 10.8918 6.81464 10.941 6.93356M10.8667 6.55853L10.941 6.93356M12.5387 7.25273C12.8771 6.91507 13.4278 6.91494 13.7663 7.25279L15.0801 5.93663C14.0173 4.87581 12.2879 4.87546 11.225 5.93675C11.1432 6.01836 11.0783 6.11529 11.0339 6.22199C10.9896 6.32869 10.9668 6.44308 10.9667 6.55862C10.9666 6.67416 10.9892 6.78858 11.0334 6.89536C11.0775 7.00214 11.1423 7.09917 11.2239 7.18092C11.3055 7.26272 11.4024 7.32764 11.5091 7.37197C11.6158 7.41629 11.7302 7.43916 11.8458 7.43925C11.9613 7.43935 12.0757 7.41668 12.1825 7.37254C12.2893 7.32839 12.3863 7.26364 12.4681 7.18198L12.5387 7.25276C12.5387 7.25275 12.5387 7.25274 12.5387 7.25273Z" fill="white" stroke="white" stroke-width="0.2"/>
</g>
<defs>
<clipPath id="clip0_19001_988">
<rect width="60" height="60" fill="white" transform="translate(0.25)"/>
</clipPath>
</defs>
</svg>
