<svg width="61" height="60" viewBox="0 0 61 60" fill="none" xmlns="http://www.w3.org/2000/svg">
<g clip-path="url(#clip0_19001_962)">
<path fill-rule="evenodd" clip-rule="evenodd" d="M32.8588 7.2852C36.2764 7.2852 40.4968 11.4624 43.888 14.8164C44.9476 15.8664 45.9352 16.8444 46.8124 17.6076C46.904 17.6893 47.0097 17.7535 47.1244 17.7972L51.4732 19.4808C53.4292 20.2392 57.004 23.6532 57.9352 26.8104C58.2604 27.9084 58.1908 28.7904 57.7276 29.4288C56.452 31.1964 52.4116 31.1412 49.9996 29.8476C49.2652 29.4552 48.7432 29.6232 48.4324 29.8404C47.698 30.3588 47.8216 31.23 48.004 32.4396C48.3532 34.8144 48.9388 38.7888 44.6728 41.2536L43.4368 41.9664C43.2434 42.078 43.0758 42.2291 42.9447 42.4098C42.8136 42.5905 42.722 42.7968 42.676 43.0152C42.5788 43.4628 42.6808 43.9344 42.9532 44.3076L49.0948 52.7136H46.5628C46.4782 52.7155 46.3945 52.6969 46.3187 52.6595C46.2428 52.6221 46.1771 52.567 46.1272 52.4988L36.952 41.4096C36.1264 40.41 34.4428 40.242 33.6688 41.4024C31.6576 44.406 29.0152 45.7836 25.1032 45.8724C24.1012 45.894 23.3836 46.7112 23.3956 47.814C23.4076 48.9636 24.1948 49.83 25.2268 49.83L34.7572 49.8444L34.7404 52.7136H11.7352C11.1352 52.7136 10.636 52.506 10.2124 52.0848C9.81517 51.6852 7.75117 49.686 6.23317 49.5324C4.06477 49.3152 2.36677 47.4336 2.36677 45.2544C2.36677 43.1532 3.72277 41.3676 5.66677 40.9176C6.24788 40.7826 6.76679 40.4563 7.14021 39.991C7.51364 39.5258 7.71993 38.9485 7.72597 38.352C7.83037 29.616 15.0208 22.5072 23.752 22.5072L24.9484 22.4844C26.3368 22.4508 28.2424 22.4052 29.2192 22.7424L30.4156 23.1864C32.368 23.934 34.5796 24.7788 36.7576 24.198L39.2992 23.52C40.0144 23.3304 40.4932 22.7016 40.4872 21.9588C40.4871 21.6035 40.3671 21.2586 40.1468 20.9799C39.9264 20.7011 39.6185 20.5049 39.2728 20.4228C32.6152 18.78 27.466 15.3624 23.9368 10.2576H29.5876C33.4048 10.2708 37.5796 14.0256 41.2624 17.3424C42.1632 18.1645 43.0786 18.9706 44.008 19.7604C44.2247 19.9248 44.4962 19.9995 44.7665 19.9692C45.0368 19.9388 45.285 19.8057 45.4599 19.5974C45.6348 19.3891 45.7228 19.1215 45.7058 18.8501C45.6889 18.5786 45.5682 18.3241 45.3688 18.1392C44.4584 17.364 43.5614 16.573 42.6784 15.7668C38.7376 12.2232 34.276 8.208 29.686 8.1408C29.1088 8.0088 28.5496 7.7244 28 7.284L32.8588 7.2852ZM51.3064 21.3732C50.9614 21.3732 50.6305 21.5102 50.3866 21.7542C50.1426 21.9981 50.0056 22.329 50.0056 22.674C50.0056 23.019 50.1426 23.3499 50.3866 23.5938C50.6305 23.8377 50.9614 23.9748 51.3064 23.9748C51.6514 23.9748 51.9822 23.8377 52.2262 23.5938C52.4701 23.3499 52.6072 23.019 52.6072 22.674C52.6072 22.329 52.4701 21.9981 52.2262 21.7542C51.9822 21.5102 51.6514 21.3732 51.3064 21.3732ZM45.376 13.3116C41.7076 9.684 37.1464 5.1684 32.8576 5.1684H25.6036C25.4089 5.16889 25.2181 5.22302 25.0522 5.32482C24.8862 5.42663 24.7516 5.57218 24.6629 5.74551C24.5743 5.91883 24.5351 6.11323 24.5497 6.30736C24.5642 6.5015 24.632 6.68786 24.7456 6.846C25.0948 7.3308 25.4512 7.7616 25.8148 8.142H22.006C21.8197 8.14283 21.6369 8.19267 21.4759 8.2865C21.3149 8.38033 21.1815 8.51485 21.089 8.67656C20.9964 8.83827 20.9481 9.02148 20.9487 9.20779C20.9494 9.3941 20.9991 9.57695 21.0928 9.738C24.6124 15.7236 29.9284 19.83 36.91 21.9684L36.2116 22.1544C34.6996 22.5672 32.902 21.8724 31.1728 21.2124L29.9128 20.7456C28.5688 20.2776 26.5336 20.328 24.8956 20.3724L23.7508 20.3916C13.8652 20.3916 5.72557 28.4388 5.60917 38.3268C5.60999 38.4504 5.5682 38.5705 5.49082 38.6669C5.41345 38.7633 5.30522 38.8301 5.18437 38.856C2.28037 39.5304 0.249972 42.1596 0.249972 45.2556C0.24485 46.8471 0.833595 48.3833 1.90107 49.5637C2.96854 50.7442 4.43797 51.4839 6.02197 51.6384C6.41917 51.6816 7.65517 52.5204 8.71717 53.5824C9.11109 53.9823 9.58131 54.2991 10.0999 54.5138C10.6186 54.7286 11.175 54.8371 11.7364 54.8328H34.7428C35.3089 54.8325 35.8517 54.6075 36.2519 54.2072C36.6522 53.8069 36.8773 53.2641 36.8776 52.698V49.8456C36.8763 49.2801 36.6509 48.7382 36.2507 48.3387C35.8505 47.9392 35.3082 47.7147 34.7428 47.7144H27.8596C31.0804 47.0976 33.5056 45.4572 35.3212 42.7608L44.4988 53.85C44.7476 54.1581 45.0625 54.4064 45.4201 54.5766C45.7778 54.7467 46.1691 54.8342 46.5652 54.8328H50.116C50.7304 54.8328 51.28 54.4908 51.5488 53.9388C51.6816 53.6758 51.7379 53.3807 51.7112 53.0873C51.6844 52.7939 51.5758 52.5139 51.3976 52.2792L44.9944 43.5144L45.7324 43.0872C51.1852 39.9396 50.4868 34.7676 50.1112 32.214C53.3608 33.4332 57.6736 33.114 59.4472 30.6696C60.2968 29.4888 60.478 27.9468 59.9668 26.2104C58.8952 22.5828 54.9352 18.5532 52.2376 17.508L48.0664 15.8916C47.2528 15.174 46.348 14.2752 45.376 13.3116Z" fill="white"/>
</g>
<defs>
<clipPath id="clip0_19001_962">
<rect width="60" height="60" fill="white" transform="translate(0.25)"/>
</clipPath>
</defs>
</svg>
