<svg width="67" height="66" viewBox="0 0 67 66" fill="none" xmlns="http://www.w3.org/2000/svg">
<path d="M55.4781 65.153C55.0792 66.0234 54.5621 65.9925 53.8971 65.9827L50.8 65.9825C48.9482 66.006 48.4583 65.2694 49.1213 62.848L49.6353 61.0579C50.0817 59.5028 50.6795 57.1824 50.8708 55.5176C51.2063 52.601 50.1039 49.3143 48.8067 47.029C47.261 44.3058 45.5079 42.335 42.8145 42.3275C41.5057 42.3238 40.2292 42.5755 38.9277 42.6705L32.9416 42.7085C32.5632 42.7031 32.1628 42.7135 31.7885 42.6383L28.642 42.3067C27.9248 42.9545 27.6425 48.1358 27.7125 49.2231L27.8592 50.7244C28.168 54.9998 27.3365 55.6541 26.654 59.4748L26.1306 62.9895C25.757 66.2831 25.785 65.9748 23.4487 65.9756L18.4528 65.9727C18.0515 65.9719 17.444 66.0756 17.0767 65.8845L17.0259 65.8556C16.136 65.3607 16.1746 64.4976 16.4422 63.5015L16.6721 62.537C17.4164 59.0973 18.3217 55.8403 17.4078 52.2398C16.9484 50.4296 15.9767 49.0506 15.4562 47.2811C15.1374 46.1982 14.9141 45.0449 14.7171 43.9134C14.285 41.4307 13.913 40.0738 12.9035 37.8988L11.8436 35.7142C10.5042 32.7823 9.43513 29.3688 9.31214 25.9258C8.33872 25.4978 6.15534 24.1083 6.10989 22.4597C6.07708 21.2681 6.84562 20.1335 7.39724 19.3013C7.28848 18.8678 6.05515 13.9868 6.05312 13.9847C6.00506 13.9337 5.93275 14.0176 5.87234 14.0323C3.49149 14.6134 1.71046 13.1565 0.466528 10.5528C0.311454 10.2283 0.110787 9.83362 0.0439949 9.45453C-0.0140853 9.12674 -0.0175701 6.22441 0.054159 6.05993C1.40452 5.24739 2.74066 5.30388 4.18918 5.29887C3.55247 3.93949 2.00478 0.791308 3.92782 0.0165556C4.95845 -0.129409 5.03628 0.719388 5.64162 1.60347C6.04411 2.19157 7.55246 3.5899 8.17769 3.14815L8.71348 2.79664C10.8489 1.52692 13.1327 1.6617 15.2301 2.92139L15.9797 3.3832C16.6879 3.78735 18.3268 2.58107 18.8485 2.02015C19.4037 1.42337 19.7534 0.244276 20.4924 0.0547336C21.0475 -0.0875677 21.6674 0.300774 21.7593 1.09307C21.8906 2.22454 21.4673 3.03728 21.0265 3.95202L20.2669 5.47626C20.4664 5.52023 20.7011 5.48918 20.9044 5.49092C23.2324 5.51116 24.4863 6.0447 23.7329 9.61997C23.6943 9.80296 23.6803 10.0035 23.5997 10.1647L23.5588 10.2416C24.6304 10.3324 25.7323 10.2678 26.8065 10.2686L44.8385 10.3405C45.3473 10.3477 45.8436 10.4497 46.3513 10.453L52.97 10.4761C55.1117 10.592 57.466 11.2277 58.8901 13.534C59.0864 13.8518 59.0214 13.9037 59.3282 13.9177L59.858 13.9496C62.1931 14.1659 64.1358 16.9398 64.7604 19.7853C65.023 20.9808 65.1008 22.2065 65.103 23.4446L65.1046 25.9977C65.108 30.2589 66.4122 28.7533 66.6896 30.1449C67.2239 32.8251 64.0854 32.8766 63.1689 29.3424C62.0639 25.0809 64.0744 20.4594 60.6331 17.3131C61.0125 20.6587 60.8015 22.5345 60.1368 25.7534L59.1078 30.8082L57.7849 40.0435C57.3873 43.3371 57.368 42.8288 58.1248 46.089C58.9141 49.4892 58.2032 51.3179 57.3751 54.4422L56.6231 57.7041C56.2605 59.2307 55.7011 60.8733 55.6006 62.4842C55.5486 63.3177 55.7275 64.3834 55.4779 65.153H55.4781ZM11.4187 4.99055C8.7129 5.38467 7.60996 7.77198 7.90718 11.2468C8.03467 12.7359 9.22705 17.639 9.88597 19.1052C10.7139 18.8568 11.4774 18.6594 12.3336 18.7737L13.6589 19.1727C14.0712 18.3883 14.3131 17.4234 14.5838 16.5405C15.5417 13.4166 17.0939 8.21065 14.3809 5.78805C13.5015 5.0027 12.4453 4.90436 11.4187 4.99055ZM2.21213 8.34986C2.9679 10.2935 3.82806 11.194 5.42934 11.2078L5.46752 8.55233C5.03744 8.40945 2.80469 8.34042 2.21213 8.34986ZM18.4519 8.48696L18.2487 8.55541C18.1075 8.82536 18.1579 10.5388 18.1778 10.9202C19.076 10.8993 19.8476 10.9632 20.5569 10.108C20.8949 9.61226 21.1801 9.07371 21.447 8.50778L18.4519 8.48696ZM26.432 13.288L24.0814 13.3607C23.8421 13.5853 23.6278 14.1489 23.4502 14.4746C22.37 16.4562 21.2283 18.5798 20.9028 21.0446C20.527 23.8893 21.4068 25.3772 20.2646 28.392C19.0513 31.5942 17.0118 33.902 14.8446 35.9309L14.7439 36.0229C15.1488 36.8934 15.5751 37.7364 15.9034 38.6658L16.3772 40.1905C16.4371 40.3989 16.4814 40.6833 16.577 40.8628C19.6417 41.0298 24.0764 41.4004 23.8641 46.8408C23.832 47.6626 23.7067 48.4806 23.7382 49.3066C23.7696 50.1242 23.8891 50.9261 23.9606 51.7375C24.2322 54.8234 23.7265 56.7211 23.159 59.6659L22.7127 61.9184C22.4963 63.0931 22.3506 63.0713 22.9937 63.0746L23.855 63.078C23.9825 61.0745 24.3039 59.0298 24.7838 57.1226C25.3578 54.8415 25.8527 53.6632 25.602 51.1791C25.5355 50.5204 25.425 49.8668 25.3969 49.2027C25.2968 46.8418 25.6218 41.6386 27.0554 40.0391C27.8127 39.194 28.9594 39.2806 29.8862 39.3891C32.5297 39.6988 35.1969 39.7977 37.8526 39.6722L42.6715 39.2871C45.3283 39.2514 46.854 39.9651 48.7001 42.3666C53.3409 48.4033 54.2112 53.6713 52.0497 61.4142L51.5614 63.0322L53.3064 62.9797C53.4235 61.0446 53.8418 59.3776 54.252 57.5244L55.0947 53.8637C55.8697 51.0058 56.6536 49.4736 55.7465 46.4332C54.8268 43.3504 55.2407 41.9145 55.623 38.6656L57.0988 29.0243L57.8351 25.3796C58.4573 22.4986 59.1261 19.2257 57.7261 16.5399C56.4701 14.1302 54.6548 13.5014 52.5986 13.486L49.6597 13.4771C49.3571 13.4615 49.0599 13.3609 48.7518 13.3478L29.9951 13.3306L30.2029 14.7058C30.4785 16.2283 30.9215 17.9834 31.754 19.1303C32.8022 20.5741 34.3315 21.1061 35.2583 22.7865C36.2438 24.5734 36.1069 25.7623 36.6843 27.2796C37.4883 29.392 39.631 30.0732 41.2439 29.5493C42.9998 28.9789 43.2324 27.5314 44.2446 26.0575C45.7604 23.8505 47.7544 24.5614 49.4255 25.8873C51.3156 27.3868 52.598 29.981 53.1257 32.7908C54.4717 39.9574 51.0377 38.7873 50.9568 37.2008C50.9099 36.281 51.1257 35.3522 50.996 34.1675C50.7059 31.5161 48.693 27.5748 46.3995 27.7322C45.7665 27.7755 44.4864 32.1875 40.9749 32.678C39.2346 32.9212 37.4304 32.6271 36.0337 31.1152C33.8998 28.8054 34.5827 26.9119 33.4372 24.7006C32.9287 23.7192 32.1015 23.3534 31.3684 22.7537C29.0898 20.8903 27.9804 17.1099 27.7195 13.6823C27.7095 13.5504 27.7131 13.437 27.6664 13.3183L26.432 13.288ZM21.0761 13.3383C19.73 13.9264 18.9684 14.0502 17.5831 14.045C17.4962 14.3223 17.4871 14.6208 17.4312 14.9102L16.9992 16.8114C16.7393 17.7911 16.007 19.4363 15.9898 20.432C16.3152 21.1429 16.8255 21.6766 16.6681 22.6078C16.4323 24.0034 14.8383 25.4654 13.7771 25.7216C13.5135 25.7853 13.2205 25.759 12.9532 25.7602L11.5668 25.7617C11.6513 27.731 12.0842 29.4421 12.6507 31.2482C12.9131 32.0222 13.1832 32.7694 13.5582 33.461C15.2919 31.7636 17.0987 29.8032 18.1251 27.2326C18.5812 26.0901 18.5552 25.4877 18.5515 24.2307C18.5389 19.8512 18.5711 18.4286 20.6551 14.513C20.7252 14.3811 21.4884 13.2213 21.0761 13.3383ZM12.0236 21.4188C11.4553 21.6537 10.7595 22.7119 10.2326 22.3507C8.1003 20.889 8.30982 22.8579 10.084 22.952L12.0225 22.9028C12.8007 22.8901 13.3094 22.8567 14.013 22.3457C13.3708 22.0922 12.6828 21.3733 12.0236 21.4188ZM16.9308 43.8832C17.3136 45.5752 17.9336 46.9643 18.6282 48.5126C20.3375 52.3223 20.2809 54.9466 19.8231 59.1646C19.7258 60.0612 20.2759 60.2833 20.113 60.8618C19.9064 61.5951 18.9455 60.9202 18.9148 62.8461L19.8707 62.9361L20.032 62.4469L21.2584 57.5634C21.6071 55.952 21.8127 54.5149 21.7625 52.8395C21.7265 51.6349 21.463 50.4767 21.4418 49.2654C21.4258 48.3526 21.6905 46.611 21.4866 45.8401L21.4706 45.7786C21.0311 44.204 17.9514 43.8967 16.9519 43.8427L16.9308 43.8832Z" fill="white"/>
</svg>
