<svg width="55" height="38" viewBox="0 0 55 38" fill="none" xmlns="http://www.w3.org/2000/svg">
<path d="M10.636 18.1C9.478 18.1 9.478 19.9 10.636 19.9C11.794 19.9 11.794 18.1 10.636 18.1Z" fill="white"/>
<path d="M54.088 3.586C53.74 2.488 52.774 1.744 51.604 1.786C50.902 1.81 50.29 2.128 49.894 2.71C49.462 3.358 49.48 4.168 49.582 4.9C49.648 5.368 50.272 5.66199 50.692 5.52999C51.208 5.362 51.382 4.924 51.322 4.42C51.25 3.82 51.532 3.592 51.802 3.586C52.54 3.568 52.846 4.834 52.072 5.704C51.628 6.208 50.902 6.664 48.73 5.782C47.224 3.982 45.346 2.824 43.138 2.074C37.876 0.285996 32.032 0.429996 26.62 1.354C23.548 1.882 20.566 2.728 17.806 4.21C16.0953 5.12956 14.5236 6.28709 13.138 7.648C12.52 6.742 8.722 5.992 7.804 4.234C7.51 3.67 6.388 3.988 6.298 4.63C6.19 5.416 6.232 7.492 6.382 8.566C5.692 8.296 5.044 7.954 4.486 7.45C3.964 6.982 2.866 7.252 2.95 8.086C3.148 10.006 3.814 11.752 4.936 13.324C5.704 14.404 6.652 15.598 7.036 16.894C6.862 17.734 6.13 18.388 4.774 18.724C4.186 18.874 2.212 18.712 1.75 18.616C1.24 18.508 0.999998 18.892 0.879998 19.276C0.357998 20.956 -0.0440019 22.714 0.621998 24.424C0.909998 25.162 1.45 25.726 2.242 25.894C3.01 26.056 3.898 25.57 4.606 25.966C5.08 26.236 5.65 26.788 6.244 27.07C7.24 27.544 8.332 27.808 9.442 27.808C9.982 27.808 10.45 27.778 10.954 28.048C11.746 28.462 11.668 29.398 11.692 30.04C11.716 30.802 11.284 34.762 11.038 36.04C10.93 36.604 11.284 37.18 11.908 37.18H15.298C15.67 37.18 16.084 36.904 16.168 36.52C16.336 35.728 16.582 33.49 17.158 32.746C17.47 33.892 17.464 35.104 17.416 36.28C17.398 36.772 17.842 37.174 18.316 37.18C19.18 37.186 20.128 37.336 20.968 37.078C21.844 36.808 22.468 36.064 22.924 35.308C23.188 34.87 23.806 32.8 24.076 32.662C24.598 32.392 31.888 32.176 33.718 32.062C33.172 33.394 32.23 34.504 31.546 35.8C31.228 36.4 31.618 37.15 32.326 37.156C33.448 37.168 34.6 37.252 35.716 37.174C36.664 37.108 37.774 36.754 37.924 35.71C38.068 34.732 38.83 32.446 40.246 31.888C41.002 33.214 40.156 35.188 40.126 36.292C40.114 36.778 40.552 37.156 41.026 37.192C42.19 37.288 43.468 37.414 44.656 37.168C45.928 36.91 46.492 35.752 47.02 34.672C48.004 32.65 48.418 30.556 48.502 28.336C48.532 27.424 49.192 26.014 49.522 25.384C50.17 24.154 50.872 22.954 51.316 21.628C52.27 18.814 52.252 15.772 51.742 12.874C51.442 11.176 50.974 9.53199 50.206 8.02599C51.586 8.14599 52.972 7.744 53.734 6.466C54.232 5.632 54.394 4.516 54.1 3.586H54.088ZM8.092 6.952C8.806 7.822 11.728 8.47599 11.92 8.95599C11.626 9.29199 11.344 9.64 11.074 10C10.51 9.75399 8.986 9.346 8.134 9.124C8.188 8.47 8.098 7.018 8.092 6.946V6.952ZM14.548 35.392H12.958C13.126 34.378 13.276 33.358 13.372 32.338C13.438 31.618 13.504 30.862 13.504 30.118C13.864 30.34 14.23 30.55 14.626 30.718C15.106 30.922 15.58 31.036 15.988 31.222C15.076 32.38 14.818 33.952 14.554 35.398L14.548 35.392ZM37.042 32.56C36.622 33.172 36.436 33.904 36.274 34.624C36.214 34.888 36.208 35.332 35.584 35.392C35.032 35.446 34.474 35.41 33.916 35.398C34.132 35.08 34.348 34.762 34.552 34.432C35.032 33.658 35.428 32.83 35.668 31.954C35.908 31.942 37.222 31.858 37.642 31.834C37.432 32.062 37.228 32.302 37.048 32.56H37.042ZM50.116 18.976C49.9 20.32 49.48 21.61 48.856 22.822C48.286 23.932 47.638 24.994 47.182 26.158C46.498 27.928 46.642 29.854 46.222 31.696C45.904 33.106 44.974 35.038 44.53 35.338C44.152 35.59 42.316 35.452 41.968 35.434C42.034 34.684 42.136 33.94 42.22 33.184C42.298 32.488 42.298 31.75 41.932 31.126C41.116 29.734 39.496 29.956 38.116 30.01C35.656 30.106 24.958 30.814 24.214 30.862C23.65 30.904 23.104 30.97 22.702 31.408C22.276 31.864 22.162 32.56 21.958 33.124C21.736 33.748 21.454 34.384 21.028 34.894C20.566 35.452 19.906 35.482 19.228 35.44C19.258 33.64 19.09 31.498 17.818 30.238C17.116 29.542 16.192 29.44 15.322 29.062C14.404 28.66 13.618 28.036 12.88 27.37C12.112 26.674 11.422 26.062 10.336 26.002C9.154 25.936 8.146 26.008 7.042 25.474C6.442 25.18 6.028 24.724 5.464 24.394C4.636 23.914 3.826 24.094 2.926 24.148C2.218 24.19 2.152 23.476 2.08 22.882C1.978 22.09 2.188 21.274 2.41 20.494C4.276 20.662 6.37 20.74 7.714 19.264C8.47 18.436 8.95 17.422 8.836 16.666C8.626 15.196 7.528 13.9 6.682 12.706C6.07 11.842 5.548 10.954 5.194 10C6.406 10.546 7.726 10.858 9.022 11.218C9.982 11.488 11.032 11.752 11.662 12.586C12.286 13.42 12.712 14.59 12.43 15.622C12.124 16.738 13.858 17.218 14.164 16.102C14.524 14.794 14.194 13.438 13.57 12.262C13.306 11.752 12.97 11.332 12.586 10.978C15.61 7.036 20.032 4.624 24.85 3.538C29.86 2.41 35.236 2.05 40.282 3.166C42.304 3.616 44.518 4.258 46.096 5.668C47.734 7.138 48.862 8.90199 49.462 11.026C50.188 13.582 50.542 16.342 50.11 18.988L50.116 18.976Z" fill="white"/>
</svg>
